<svg width="180" height="160" viewBox="0 0 180 160" fill="none" xmlns="http://www.w3.org/2000/svg">
	<g transform="translate(0, 6)">
		<ellipse cx="90" cy="91.2772" rx="70" ry="20.2127" fill="#1539C5" fill-opacity="0.278431"/>
		<mask id="mask0_597_2508" style="mask-type:alpha" maskUnits="userSpaceOnUse" x="21" y="97" width="138" height="24">
			<rect x="21.2576" y="97.4473" width="137.485" height="22.5531" fill="url(#paint0_linear_597_2508)"/>
		</mask>
		<g mask="url(#mask0_597_2508)">
			<path d="M40.5382 99.7869C40.5382 103.322 44.759 106.56 51.8007 109.087L37.2605 112.652C27.532 109.159 21.6765 104.671 21.6765 99.7869C21.6765 94.9029 27.532 90.4145 37.2605 86.9216L51.8007 90.4868C44.7632 93.0139 40.5382 96.2515 40.5382 99.7869Z" fill="#31C6FF" fill-opacity="0.301961"/>
			<path d="M89.7882 85.173C77.8718 85.173 66.9614 86.4238 58.4443 88.5127L46.4273 84.1988C58.2096 81.31 73.3283 79.5742 89.7882 79.5742C106.248 79.5742 121.371 81.31 133.149 84.1988L121.132 88.5127C112.615 86.4238 101.705 85.173 89.7882 85.173Z" fill="#31C6FF" fill-opacity="0.301961"/>
			<path d="M142.32 86.9216C152.049 90.4145 157.904 94.9029 157.904 99.7869C157.904 104.671 152.049 109.159 142.32 112.652L127.78 109.087C134.817 106.56 139.042 103.322 139.042 99.7869C139.042 96.2515 134.822 93.0139 127.78 90.4868L142.32 86.9216Z" fill="#31C6FF" fill-opacity="0.301961"/>
			<path d="M89.7882 114.401C101.705 114.401 112.615 113.15 121.132 111.061L133.149 115.375C121.371 118.264 106.252 120 89.7882 120C73.3241 120 58.2054 118.264 46.4273 115.375L58.4443 111.061C66.9614 113.15 77.8718 114.401 89.7882 114.401Z" fill="#31C6FF" fill-opacity="0.301961"/>
			<path d="M40.5382 99.7869C40.5382 103.322 44.759 106.56 51.8007 109.087L37.2605 112.652C27.532 109.159 21.6765 104.671 21.6765 99.7869C21.6765 94.9029 27.532 90.4145 37.2605 86.9216L51.8007 90.4868C44.7632 93.0139 40.5382 96.2515 40.5382 99.7869Z" fill="#33C8FF"/>
			<path d="M89.7882 85.173C77.8718 85.173 66.9614 86.4238 58.4443 88.5127L46.4273 84.1988C58.2096 81.31 73.3283 79.5742 89.7882 79.5742C106.248 79.5742 121.371 81.31 133.149 84.1988L121.132 88.5127C112.615 86.4238 101.705 85.173 89.7882 85.173Z" fill="#33C8FF"/>
			<path d="M142.32 86.9216C152.049 90.4145 157.904 94.9029 157.904 99.7869C157.904 104.671 152.049 109.159 142.32 112.652L127.78 109.087C134.817 106.56 139.042 103.322 139.042 99.7869C139.042 96.2515 134.822 93.0139 127.78 90.4868L142.32 86.9216Z" fill="#33C8FF"/>
			<path d="M89.7882 114.401C101.705 114.401 112.615 113.15 121.132 111.061L133.149 115.375C121.371 118.264 106.252 120 89.7882 120C73.3241 120 58.2054 118.264 46.4273 115.375L58.4443 111.061C66.9614 113.15 77.8718 114.401 89.7882 114.401Z" fill="#33C8FF"/>
			<path d="M40.5382 97.66C40.5382 101.195 44.759 104.433 51.8007 106.96L37.2605 110.525C27.532 107.032 21.6765 102.544 21.6765 97.66C21.6765 92.7759 27.532 88.2875 37.2605 84.7946L51.8007 88.3598C44.7632 90.887 40.5382 94.1246 40.5382 97.66Z" fill="#2294FF"/>
			<path d="M89.7882 83.0461C77.8718 83.0461 66.9614 84.2969 58.4443 86.3858L46.4273 82.0718C58.2096 79.1831 73.3283 77.4473 89.7882 77.4473C106.248 77.4473 121.371 79.1831 133.149 82.0718L121.132 86.3858C112.615 84.2969 101.705 83.0461 89.7882 83.0461Z" fill="#2294FF"/>
			<path d="M142.32 84.7946C152.049 88.2875 157.904 92.7759 157.904 97.66C157.904 102.544 152.049 107.032 142.32 110.525L127.78 106.96C134.817 104.433 139.042 101.195 139.042 97.66C139.042 94.1246 134.822 90.887 127.78 88.3598L142.32 84.7946Z" fill="#2294FF"/>
			<path d="M89.7882 112.274C101.705 112.274 112.615 111.023 121.132 108.934L133.149 113.248C121.371 116.137 106.252 117.873 89.7882 117.873C73.3241 117.873 58.2054 116.137 46.4273 113.248L58.4443 108.934C66.9614 111.023 77.8718 112.274 89.7882 112.274Z" fill="#2294FF"/>
			<path d="M40.5382 97.66C40.5382 101.195 44.759 104.433 51.8007 106.96L37.2605 110.525C27.532 107.032 21.6765 102.544 21.6765 97.66C21.6765 92.7759 27.532 88.2875 37.2605 84.7946L51.8007 88.3598C44.7632 90.887 40.5382 94.1246 40.5382 97.66Z" fill="#2294FF"/>
			<path d="M89.7882 83.0461C77.8718 83.0461 66.9614 84.2969 58.4443 86.3858L46.4273 82.0718C58.2096 79.1831 73.3283 77.4473 89.7882 77.4473C106.248 77.4473 121.371 79.1831 133.149 82.0718L121.132 86.3858C112.615 84.2969 101.705 83.0461 89.7882 83.0461Z" fill="#2294FF"/>
			<path d="M142.32 84.7946C152.049 88.2875 157.904 92.7759 157.904 97.66C157.904 102.544 152.049 107.032 142.32 110.525L127.78 106.96C134.817 104.433 139.042 101.195 139.042 97.66C139.042 94.1246 134.822 90.887 127.78 88.3598L142.32 84.7946Z" fill="#2294FF"/>
			<path d="M89.7882 112.274C101.705 112.274 112.615 111.023 121.132 108.934L133.149 113.248C121.371 116.137 106.252 117.873 89.7882 117.873C73.3241 117.873 58.2054 116.137 46.4273 113.248L58.4443 108.934C66.9614 111.023 77.8718 112.274 89.7882 112.274Z" fill="#2294FF"/>
		</g>
		<mask id="mask1_597_2508" style="mask-type:alpha" maskUnits="userSpaceOnUse" x="21" y="97" width="138" height="24">
			<rect x="21.2576" y="97.4473" width="137.485" height="22.5531" fill="url(#paint1_linear_597_2508)"/>
		</mask>
		<g mask="url(#mask1_597_2508)">
			<path d="M40.5382 99.7869C40.5382 103.322 44.759 106.56 51.8007 109.087L37.2605 112.652C27.532 109.159 21.6765 104.671 21.6765 99.7869C21.6765 94.9029 27.532 90.4145 37.2605 86.9216L51.8007 90.4868C44.7632 93.0139 40.5382 96.2515 40.5382 99.7869Z" fill="#31C6FF" fill-opacity="0.301961"/>
			<path d="M89.7882 85.173C77.8718 85.173 66.9614 86.4238 58.4443 88.5127L46.4273 84.1988C58.2096 81.31 73.3283 79.5742 89.7882 79.5742C106.248 79.5742 121.371 81.31 133.149 84.1988L121.132 88.5127C112.615 86.4238 101.705 85.173 89.7882 85.173Z" fill="#31C6FF" fill-opacity="0.301961"/>
			<path d="M142.32 86.9216C152.049 90.4145 157.904 94.9029 157.904 99.7869C157.904 104.671 152.049 109.159 142.32 112.652L127.78 109.087C134.817 106.56 139.042 103.322 139.042 99.7869C139.042 96.2515 134.822 93.0139 127.78 90.4868L142.32 86.9216Z" fill="#31C6FF" fill-opacity="0.301961"/>
			<path d="M89.7882 114.401C101.705 114.401 112.615 113.15 121.132 111.061L133.149 115.375C121.371 118.264 106.252 120 89.7882 120C73.3241 120 58.2054 118.264 46.4273 115.375L58.4443 111.061C66.9614 113.15 77.8718 114.401 89.7882 114.401Z" fill="#31C6FF" fill-opacity="0.301961"/>
			<path d="M40.5382 99.7869C40.5382 103.322 44.759 106.56 51.8007 109.087L37.2605 112.652C27.532 109.159 21.6765 104.671 21.6765 99.7869C21.6765 94.9029 27.532 90.4145 37.2605 86.9216L51.8007 90.4868C44.7632 93.0139 40.5382 96.2515 40.5382 99.7869Z" fill="#33C8FF"/>
			<path d="M89.7882 85.173C77.8718 85.173 66.9614 86.4238 58.4443 88.5127L46.4273 84.1988C58.2096 81.31 73.3283 79.5742 89.7882 79.5742C106.248 79.5742 121.371 81.31 133.149 84.1988L121.132 88.5127C112.615 86.4238 101.705 85.173 89.7882 85.173Z" fill="#33C8FF"/>
			<path d="M142.32 86.9216C152.049 90.4145 157.904 94.9029 157.904 99.7869C157.904 104.671 152.049 109.159 142.32 112.652L127.78 109.087C134.817 106.56 139.042 103.322 139.042 99.7869C139.042 96.2515 134.822 93.0139 127.78 90.4868L142.32 86.9216Z" fill="#33C8FF"/>
			<path d="M89.7882 114.401C101.705 114.401 112.615 113.15 121.132 111.061L133.149 115.375C121.371 118.264 106.252 120 89.7882 120C73.3241 120 58.2054 118.264 46.4273 115.375L58.4443 111.061C66.9614 113.15 77.8718 114.401 89.7882 114.401Z" fill="#33C8FF"/>
			<path d="M40.5382 97.66C40.5382 101.195 44.759 104.433 51.8007 106.96L37.2605 110.525C27.532 107.032 21.6765 102.544 21.6765 97.66C21.6765 92.7759 27.532 88.2875 37.2605 84.7946L51.8007 88.3598C44.7632 90.887 40.5382 94.1246 40.5382 97.66Z" fill="#2294FF"/>
			<path d="M89.7882 83.0461C77.8718 83.0461 66.9614 84.2969 58.4443 86.3858L46.4273 82.0718C58.2096 79.1831 73.3283 77.4473 89.7882 77.4473C106.248 77.4473 121.371 79.1831 133.149 82.0718L121.132 86.3858C112.615 84.2969 101.705 83.0461 89.7882 83.0461Z" fill="#2294FF"/>
			<path d="M142.32 84.7946C152.049 88.2875 157.904 92.7759 157.904 97.66C157.904 102.544 152.049 107.032 142.32 110.525L127.78 106.96C134.817 104.433 139.042 101.195 139.042 97.66C139.042 94.1246 134.822 90.887 127.78 88.3598L142.32 84.7946Z" fill="#2294FF"/>
			<path d="M89.7882 112.274C101.705 112.274 112.615 111.023 121.132 108.934L133.149 113.248C121.371 116.137 106.252 117.873 89.7882 117.873C73.3241 117.873 58.2054 116.137 46.4273 113.248L58.4443 108.934C66.9614 111.023 77.8718 112.274 89.7882 112.274Z" fill="#2294FF"/>
			<path d="M40.5382 97.66C40.5382 101.195 44.759 104.433 51.8007 106.96L37.2605 110.525C27.532 107.032 21.6765 102.544 21.6765 97.66C21.6765 92.7759 27.532 88.2875 37.2605 84.7946L51.8007 88.3598C44.7632 90.887 40.5382 94.1246 40.5382 97.66Z" fill="#2294FF"/>
			<path d="M89.7882 83.0461C77.8718 83.0461 66.9614 84.2969 58.4443 86.3858L46.4273 82.0718C58.2096 79.1831 73.3283 77.4473 89.7882 77.4473C106.248 77.4473 121.371 79.1831 133.149 82.0718L121.132 86.3858C112.615 84.2969 101.705 83.0461 89.7882 83.0461Z" fill="#2294FF"/>
			<path d="M142.32 84.7946C152.049 88.2875 157.904 92.7759 157.904 97.66C157.904 102.544 152.049 107.032 142.32 110.525L127.78 106.96C134.817 104.433 139.042 101.195 139.042 97.66C139.042 94.1246 134.822 90.887 127.78 88.3598L142.32 84.7946Z" fill="#2294FF"/>
			<path d="M89.7882 112.274C101.705 112.274 112.615 111.023 121.132 108.934L133.149 113.248C121.371 116.137 106.252 117.873 89.7882 117.873C73.3241 117.873 58.2054 116.137 46.4273 113.248L58.4443 108.934C66.9614 111.023 77.8718 112.274 89.7882 112.274Z" fill="#2294FF"/>
		</g>
		<g style="mix-blend-mode:overlay">
			<mask id="mask2_597_2508" style="mask-type:alpha" maskUnits="userSpaceOnUse" x="21" y="97" width="138" height="24">
				<rect x="21.2576" y="97.4473" width="137.485" height="22.5531" fill="url(#paint2_linear_597_2508)"/>
			</mask>
			<g mask="url(#mask2_597_2508)">
				<path fill-rule="evenodd" clip-rule="evenodd" d="M43.0063 103.354C40.9781 101.711 39.7001 99.7991 39.7001 97.66C39.7001 95.5206 40.9795 93.6086 43.008 91.9664C44.5402 90.7261 46.5666 89.5819 48.9922 88.5467L37.3065 85.6814C32.5976 87.391 28.8794 89.3182 26.3432 91.3711C23.7552 93.4659 22.5151 95.5902 22.5151 97.66C22.5151 99.7298 23.7552 101.854 26.3432 103.949C28.8794 106.002 32.5976 107.929 37.3065 109.639L48.9914 106.774C46.5648 105.738 44.5382 104.594 43.0063 103.354ZM50.3919 106.43C50.848 106.61 51.3179 106.787 51.801 106.96L37.2607 110.525C27.5323 107.032 21.6768 102.544 21.6768 97.66C21.6768 92.7759 27.5323 88.2875 37.2607 84.7946L51.801 88.3598C51.3181 88.5333 50.8484 88.71 50.3924 88.89C44.2035 91.3327 40.5385 94.3672 40.5385 97.66C40.5385 100.953 44.2 103.987 50.3919 106.43ZM58.4901 85.4994C67.0476 83.4273 77.9321 82.195 89.7885 82.195C101.645 82.195 112.529 83.4273 121.087 85.4994L130.147 82.247C118.888 79.769 104.913 78.2983 89.7885 78.2983C74.6637 78.2983 60.6918 79.7691 49.4304 82.2471L58.4901 85.4994ZM58.4445 86.3858L46.4275 82.0718C46.9255 81.9497 47.4294 81.8297 47.9391 81.7118C59.4901 79.0394 74.0242 77.4473 89.7885 77.4473C105.553 77.4473 120.09 79.0394 131.638 81.7117C132.148 81.8296 132.652 81.9497 133.149 82.0718L121.132 86.3858C112.615 84.2969 101.705 83.0461 89.7885 83.0461C77.8721 83.0461 66.9616 84.2969 58.4445 86.3858ZM142.275 85.6814L130.59 88.5465C133.016 89.5818 135.043 90.726 136.575 91.9665C138.603 93.6088 139.881 95.5209 139.881 97.66C139.881 99.7994 138.602 101.711 136.573 103.354C135.041 104.594 133.014 105.738 130.589 106.773L142.275 109.639C146.983 107.929 150.702 106.002 153.238 103.949C155.826 101.854 157.066 99.7298 157.066 97.66C157.066 95.5902 155.826 93.4659 153.238 91.3711C150.702 89.3182 146.983 87.391 142.275 85.6814ZM142.32 110.525L127.78 106.96C128.263 106.787 128.733 106.61 129.189 106.43C135.378 103.987 139.043 100.953 139.043 97.66C139.043 94.3671 135.381 91.3326 129.189 88.8899C128.733 88.7099 128.263 88.5332 127.78 88.3598L142.32 84.7946C152.049 88.2875 157.904 92.7759 157.904 97.66C157.904 102.544 152.049 107.032 142.32 110.525ZM121.087 109.821C112.529 111.893 101.645 113.125 89.7885 113.125C77.9321 113.125 67.0476 111.893 58.4901 109.821L49.43 113.073C60.688 115.551 74.6601 117.022 89.7885 117.022C104.917 117.022 118.889 115.551 130.147 113.073L121.087 109.821ZM121.132 108.934C112.615 111.023 101.705 112.274 89.7885 112.274C77.8721 112.274 66.9616 111.023 58.4445 108.934L46.4275 113.248C46.9254 113.37 47.4293 113.49 47.9389 113.608C59.4862 116.281 74.0203 117.873 89.7885 117.873C105.557 117.873 120.091 116.281 131.638 113.608C132.148 113.49 132.652 113.37 133.149 113.248L121.132 108.934Z" fill="url(#paint3_radial_597_2508)"/>
			</g>
		</g>
		<path d="M159.162 91.2772C159.162 93.6467 157.493 96.0862 154.026 98.4525C150.588 100.8 145.557 102.947 139.265 104.764C126.692 108.395 109.274 110.652 90 110.652C70.7258 110.652 53.3078 108.395 40.7351 104.764C34.4431 102.947 29.4123 100.8 25.9736 98.4525C22.5074 96.0862 20.8383 93.6467 20.8383 91.2772C20.8383 88.9077 22.5074 86.4682 25.9736 84.1018C29.4123 81.7543 34.4431 79.6069 40.7351 77.79C53.3078 74.1596 70.7258 71.9028 90 71.9028C109.274 71.9028 126.692 74.1596 139.265 77.79C145.557 79.6069 150.588 81.7543 154.026 84.1018C157.493 86.4682 159.162 88.9077 159.162 91.2772Z" stroke="url(#paint4_linear_597_2508)" stroke-width="1.67665"/>
		<ellipse cx="90" cy="90.8514" rx="70" ry="20.2127" fill="url(#paint5_linear_597_2508)"/>
		<ellipse cx="90" cy="90.8514" rx="70" ry="20.2127" fill="url(#paint6_radial_597_2508)" fill-opacity="0.75"/>
		<ellipse cx="90" cy="90.8514" rx="70" ry="20.2127" fill="url(#paint7_radial_597_2508)" fill-opacity="0.75"/>
		<mask id="mask3_597_2508" style="mask-type:alpha" maskUnits="userSpaceOnUse" x="20" y="52" width="140" height="60">
			<path d="M90 111.065C128.66 111.065 160 101.825 160 90.4268C160 89.3414 159.716 88.2755 159.168 87.2353L158.212 85.7714L145.176 65.8171C140.235 58.1432 117.411 52.3418 90 52.3418C62.6927 52.3418 39.9368 58.0996 34.8802 65.7305L34.8237 65.8171L21.7883 85.7713L20.8319 87.2353C20.2842 88.2755 20 89.3414 20 90.4268C20 101.825 51.3401 111.065 90 111.065Z" fill="#1835E9"/>
		</mask>
		<g mask="url(#mask3_597_2508)">
			<g filter="url(#filter0_ii_597_2508)">
				<path d="M90 111.065C128.66 111.065 160 101.825 160 90.4268C160 89.3414 159.716 88.2755 159.168 87.2353L158.212 85.7714L145.176 65.8171C140.235 58.1432 117.411 52.3418 90 52.3418C62.6927 52.3418 39.9368 58.0996 34.8802 65.7305L34.8237 65.8171L21.7883 85.7713L20.8319 87.2353C20.2842 88.2755 20 89.3414 20 90.4268C20 101.825 51.3401 111.065 90 111.065Z" fill="#1835E9" fill-opacity="0.85"/>
			</g>
			<path d="M90 111.076C128.66 111.076 160 101.836 160 90.4382C160 89.3527 159.716 88.2869 159.168 87.2467L158.212 85.7827C155.337 82.1066 149.132 78.806 140.583 76.1719C131.493 81.719 112.258 85.5445 90 85.5445C67.7416 85.5445 48.5071 81.719 39.417 76.1719C30.8683 78.8059 24.6629 82.1066 21.7883 85.7827L20.8319 87.2467C20.2842 88.2869 20 89.3527 20 90.4382C20 101.836 51.3401 111.076 90 111.076Z" fill="url(#paint8_linear_597_2508)"/>
			<path fill-rule="evenodd" clip-rule="evenodd" d="M88.7427 95.3228C127.171 95.3228 158.324 81.4151 158.324 64.2591C158.324 47.103 127.171 33.1953 88.7427 33.1953C50.3143 33.1953 19.1619 47.103 19.1619 64.2591C19.1619 81.4151 50.3143 95.3228 88.7427 95.3228ZM90.2098 84.6839C121.115 84.6839 146.168 77.349 146.168 68.3009C146.168 59.2529 121.115 51.918 90.2098 51.918C59.305 51.918 34.2517 59.2529 34.2517 68.3009C34.2517 77.349 59.305 84.6839 90.2098 84.6839Z" fill="url(#paint9_linear_597_2508)"/>
			<path d="M155.389 77.2346C155.389 80.5393 153.698 83.7751 150.451 86.8086C147.202 89.8434 142.456 92.6149 136.522 94.96C124.658 99.6483 108.21 102.566 90 102.566C71.7901 102.566 55.3424 99.6483 43.4781 94.96C37.5435 92.6149 32.7976 89.8434 29.5493 86.8086C26.3023 83.7751 24.6108 80.5393 24.6108 77.2346C24.6108 73.9299 26.3023 70.6941 29.5493 67.6606C32.7976 64.6258 37.5435 61.8543 43.4781 59.5092C55.3424 54.8209 71.7901 51.9028 90 51.9028C108.21 51.9028 124.658 54.8209 136.522 59.5092C142.456 61.8543 147.202 64.6258 150.451 67.6606C153.698 70.6941 155.389 73.9299 155.389 77.2346Z" stroke="url(#paint10_linear_597_2508)" stroke-width="1.67665"/>
			<g style="mix-blend-mode:overlay" opacity="0.7">
				<g filter="url(#filter1_f_597_2508)">
					<path d="M40.8689 50.8047C39.9821 51.8175 39.5855 53.8383 39.0497 55.0498C37.6392 58.2391 35.4906 60.4388 33.3017 63.0911C30.5139 66.469 29.4905 70.342 27.8063 74.2745C27.2052 75.678 26.5374 76.8538 25.6208 78.0707C24.257 79.8812 23.1857 81.9613 21.7677 83.7009C21.1847 84.416 20.958 85.2332 20.4286 85.9709C19.6185 87.0996 18.7141 88.1432 17.8514 89.2284C16.5842 90.8226 15.9412 92.702 14.769 94.3328C13.3075 96.366 11.6469 98.8901 10.739 101.245C10.1648 102.735 9.45003 104.05 9.08411 105.619C8.57583 107.798 7.12227 109.468 6.00164 111.364C4.14275 114.51 2.90876 118.026 0.733661 120.97C0.120241 121.801 -0.41651 122.7 -1.14866 123.471C-1.63687 123.985 -1.78343 125.089 -2.33617 125.369M16.0828 91.4344C15.4163 92.111 14.5562 92.5481 13.872 93.2427C11.4972 95.6536 9.51487 98.3798 7.18915 100.822C5.85491 102.224 4.85478 103.43 3.13394 104.349C1.87873 105.02 1.47082 105.705 0.619965 106.671C-0.150571 107.545 -1.15206 108.662 -1.70452 109.672C-2.08813 110.373 -3.1015 110.533 -3.47314 111.288" stroke="white" stroke-width="8.38323" stroke-linecap="round"/>
				</g>
				<g opacity="0.7" filter="url(#filter2_f_597_2508)">
					<path d="M60.3951 60.9863C60.3951 62.5384 59.5769 64.3833 59.193 65.8681C56.8221 75.0372 53.5928 83.3655 48.8399 91.552C44.7162 98.6547 40.857 105.916 35.4007 112.099C33.6597 114.072 32.0484 115.788 30.6638 118.037C29.712 119.583 28.413 120.822 27.5955 122.482C26.7758 124.146 26.0328 125.874 25.2091 127.546C24.3979 129.193 24.1724 131.124 23.4328 132.792C23.0354 133.688 22.2844 134.746 22.2844 135.743" stroke="white" stroke-width="11.3174" stroke-linecap="round"/>
				</g>
				<g opacity="0.7" filter="url(#filter3_f_597_2508)">
					<path d="M115.946 64.5918C115.946 65.3329 116.235 66.1325 116.341 66.887C117.031 71.7915 117.113 76.6885 118.835 81.3865C120.091 84.8129 121.397 88.1971 122.693 91.6055C123.702 94.2589 123.898 97.0584 124.738 99.7478C126.215 104.476 126.33 109.373 127.43 114.156C128.484 118.742 128.433 123.496 129.691 128.055C131.369 134.14 131.772 140.753 131.772 147.054C131.772 149.597 132.418 151.603 132.418 154.103" stroke="white" stroke-width="11.3174" stroke-linecap="round"/>
				</g>
				<g filter="url(#filter4_f_597_2508)">
					<path d="M141.461 40.002C141.461 40.9816 141.517 41.9224 141.659 42.8982C142.64 49.6537 144.873 56.4745 147.023 62.9171C149.598 70.6318 152.346 78.0399 156.354 85.1036C158.494 88.8753 161.038 92.2637 163.369 95.8873C165.264 98.8324 166.461 102.198 168.124 105.268C169.343 107.518 169.567 110.174 170.367 112.609C171.001 114.541 172.211 115.931 173.041 117.709C173.363 118.401 173.386 119.33 173.83 119.932C175.706 122.47 176.302 126.01 177.957 128.53" stroke="white" stroke-width="8.38323" stroke-linecap="round"/>
				</g>
				<g opacity="0.7" filter="url(#filter5_f_597_2508)">
					<path d="M129.834 44.9219C133.866 49.0144 137.436 53.5525 141.784 57.3267C145.802 60.8141 150.043 64.1228 154.308 67.2906C157.569 69.7121 161.38 71.6057 164.356 74.3946C167.563 77.3998 170.445 81.1981 174.835 82.4459C177.606 83.2336 179.309 85.1965 181.528 87.0544C187.509 92.0644 193.009 97.7399 198.95 102.829C201.152 104.715 203.266 106.748 205.338 108.786C206.634 110.06 208.346 110.856 209.608 112.137" stroke="white" stroke-width="11.3174" stroke-linecap="round"/>
				</g>
			</g>
			<g filter="url(#filter6_f_597_2508)">
				<path d="M33.1165 67.2363C31.3982 69.1746 30.222 71.8917 28.8775 74.0827C25.1252 80.1977 21.5276 86.0611 17.201 91.805C13.946 96.1262 10.0648 100.267 7.68242 105.185C5.67666 109.325 4.47929 113.706 2.13316 117.704C-1.12852 123.262 -5.69358 128.431 -8.50293 134.135" stroke="white" stroke-width="6.70659" stroke-linecap="round"/>
			</g>
			<g filter="url(#filter7_f_597_2508)">
				<path d="M114.968 84.8396C114.968 92.2619 120.809 100.758 123.678 107.413C125.858 112.473 127.964 117.863 129.497 123.179C130.537 126.789 132.493 131.211 133.003 134.838C133.483 138.246 136.188 149.482 139.246 151.034" stroke="white" stroke-width="6.70659" stroke-linecap="round"/>
			</g>
			<g filter="url(#filter8_f_597_2508)">
				<path d="M151.732 67.9395C151.732 69.7013 152.818 71.4748 153.582 73.0253C157.18 80.3322 162.205 87.0528 166.761 93.7601C171.003 100.004 176.101 105.516 180.133 111.913C182.781 116.112 186.45 120.122 188.496 124.275" stroke="white" stroke-width="6.70659" stroke-linecap="round"/>
			</g>
		</g>
		<g filter="url(#filter9_d_597_2508)">
			<rect width="2.52691" height="5.08273" transform="matrix(0.826194 0.563386 -0.551797 0.833978 39.9902 88.5098)" fill="#BED3FF"/>
		</g>
		<g style="mix-blend-mode:overlay">
			<rect width="2.52385" height="5.73686" transform="matrix(-0.873796 0.486292 0.475144 0.879908 142.085 88.0841)" fill="#BED3FF"/>
		</g>
		<g filter="url(#filter10_d_597_2508)">
			<rect width="2.52326" height="5.64359" transform="matrix(0.882768 0.469809 -0.458824 0.888527 46.4817 90.6387)" fill="#33C8FF"/>
		</g>
		<mask id="mask4_597_2508" style="mask-type:alpha" maskUnits="userSpaceOnUse" x="33" y="51" width="114" height="34">
			<path d="M89.9999 84.6817C112.258 84.6817 131.493 80.8562 140.583 75.309C127.839 71.3824 109.888 68.937 89.9999 68.937C70.1117 68.937 52.1606 71.3824 39.417 75.309C48.5071 80.8562 67.7415 84.6817 89.9999 84.6817Z" fill="#2E5DD5"/>
			<path d="M145.176 64.9656C140.235 57.2917 117.411 51.4902 89.9999 51.4902C62.6926 51.4902 39.9367 57.248 34.8802 64.8789L34.8236 64.9655C34.1728 65.9762 33.8323 67.0193 33.8323 68.0859C33.8323 70.6749 35.8386 73.1253 39.417 75.309C52.1606 71.3824 70.1117 68.937 89.9999 68.937C109.888 68.937 127.839 71.3824 140.583 75.309C144.161 73.1253 146.168 70.6749 146.168 68.0859C146.168 67.0193 145.827 65.9762 145.176 64.9656Z" fill="#2E5DD5"/>
		</mask>
		<g mask="url(#mask4_597_2508)">
			<path d="M89.9999 84.6817C112.258 84.6817 131.493 80.8562 140.583 75.309C127.839 71.3824 109.888 68.937 89.9999 68.937C70.1117 68.937 52.1606 71.3824 39.417 75.309C48.5071 80.8562 67.7415 84.6817 89.9999 84.6817Z" fill="#2E5DD5"/>
			<path d="M145.176 64.9656C140.235 57.2917 117.411 51.4902 89.9999 51.4902C62.6926 51.4902 39.9367 57.248 34.8802 64.8789L34.8236 64.9655C34.1728 65.9762 33.8323 67.0193 33.8323 68.0859C33.8323 70.6749 35.8386 73.1253 39.417 75.309C52.1606 71.3824 70.1117 68.937 89.9999 68.937C109.888 68.937 127.839 71.3824 140.583 75.309C144.161 73.1253 146.168 70.6749 146.168 68.0859C146.168 67.0193 145.827 65.9762 145.176 64.9656Z" fill="#2E5DD5"/>
			<g filter="url(#filter11_f_597_2508)">
				<ellipse cx="34.3747" cy="7.25418" rx="34.3747" ry="7.25418" transform="matrix(0.996578 -0.0826528 0.080213 0.996778 75.8965 78.5879)" fill="#8EC4F9"/>
			</g>
			<g filter="url(#filter12_f_597_2508)">
				<ellipse cx="34.3747" cy="2.85187" rx="34.3747" ry="2.85187" transform="matrix(0.996578 -0.0826528 0.080213 0.996778 76.3608 84.3572)" fill="#8EC4F9"/>
			</g>
			<g opacity="0.7" filter="url(#filter13_f_597_2508)">
				<ellipse cx="34.3747" cy="10.85" rx="34.3747" ry="10.85" transform="matrix(0.996578 -0.0826528 0.080213 0.996778 15.3892 41.0039)" fill="#8EC4F9"/>
			</g>
		</g>
	
		// 圈
		<mask id="mask5_597_2508" style="mask-type:alpha" maskUnits="userSpaceOnUse" x="22" y="40" width="136" height="39">
			<path d="M156.227 59.7878C156.227 61.7535 154.796 63.9155 151.486 66.1107C148.226 68.2738 143.425 70.2706 137.379 71.967C125.306 75.3547 108.554 77.4665 89.9999 77.4665C71.4456 77.4665 54.694 75.3547 42.6205 71.967C36.575 70.2706 31.774 68.2738 28.5134 66.1107C25.2043 63.9155 23.7724 61.7535 23.7724 59.7878C23.7724 57.8222 25.2043 55.6602 28.5134 53.4649C31.774 51.3018 36.575 49.305 42.6205 47.6087C54.694 44.2209 71.4456 42.1092 89.9999 42.1092C108.554 42.1092 125.306 44.2209 137.379 47.6087C143.425 49.305 148.226 51.3018 151.486 53.4649C154.796 55.6602 156.227 57.8222 156.227 59.7878Z" stroke="url(#paint11_linear_597_2508)" stroke-width="2.51497"/>
		</mask>
		// 圈
		<g class="circle" mask="url(#mask5_597_2508)">
			<path d="M156.227 59.7878C156.227 61.7535 154.796 63.9155 151.486 66.1107C148.226 68.2738 143.425 70.2706 137.379 71.967C125.306 75.3547 108.554 77.4665 89.9999 77.4665C71.4456 77.4665 54.694 75.3547 42.6205 71.967C36.575 70.2706 31.774 68.2738 28.5134 66.1107C25.2043 63.9155 23.7724 61.7535 23.7724 59.7878C23.7724 57.8222 25.2043 55.6602 28.5134 53.4649C31.774 51.3018 36.575 49.305 42.6205 47.6087C54.694 44.2209 71.4456 42.1092 89.9999 42.1092C108.554 42.1092 125.306 44.2209 137.379 47.6087C143.425 49.305 148.226 51.3018 151.486 53.4649C154.796 55.6602 156.227 57.8222 156.227 59.7878Z" stroke="url(#paint12_linear_597_2508)" stroke-width="2.51497"/>
		</g>
	
	
		<path d="M35.879 65.6496L35.9308 65.5703C37.0155 63.9354 39.1526 62.2681 42.3421 60.6955C45.507 59.135 49.5863 57.7268 54.3965 56.5441C64.0139 54.1796 76.4263 52.7477 90.0002 52.7477C103.626 52.7477 116.08 54.1905 125.713 56.571C130.531 57.7616 134.61 59.1789 137.765 60.7485C140.948 62.3318 143.064 64.0077 144.119 65.6463C144.663 66.49 144.91 67.3003 144.91 68.0859C144.91 69.9822 143.418 72.1056 139.928 74.2356C135.572 76.8939 128.663 79.2016 119.996 80.8399C111.356 82.4733 101.061 83.4242 90.0002 83.4242C78.9391 83.4242 68.6449 82.4733 60.0041 80.8399C51.3377 79.2016 44.4284 76.8939 40.0723 74.2356C36.5819 72.1056 35.09 69.9822 35.09 68.0859C35.09 67.3013 35.3372 66.4921 35.879 65.6496Z" stroke="url(#paint13_linear_597_2508)" stroke-width="2.51497"/>
		<mask id="mask6_597_2508" style="mask-type:alpha" maskUnits="userSpaceOnUse" x="33" y="51" width="114" height="34">
			<path d="M35.8787 65.6496L35.9306 65.5703C37.0153 63.9354 39.1524 62.2681 42.3419 60.6955C45.5067 59.135 49.586 57.7268 54.3962 56.5441C64.0136 54.1796 76.426 52.7477 89.9999 52.7477C103.625 52.7477 116.08 54.1905 125.713 56.571C130.53 57.7616 134.61 59.1789 137.765 60.7485C140.948 62.3318 143.064 64.0077 144.119 65.6463C144.662 66.49 144.91 67.3003 144.91 68.0859C144.91 69.9822 143.418 72.1056 139.928 74.2356C135.572 76.8939 128.662 79.2016 119.996 80.8399C111.355 82.4733 101.061 83.4242 89.9999 83.4242C78.9388 83.4242 68.6446 82.4733 60.0039 80.8399C51.3375 79.2016 44.4282 76.8939 40.072 74.2356C36.5817 72.1056 35.0898 69.9822 35.0898 68.0859C35.0898 67.3013 35.337 66.4921 35.8787 65.6496Z" stroke="url(#paint14_linear_597_2508)" stroke-width="2.51497"/>
			<path d="M35.8787 65.6496L35.9306 65.5703C37.0153 63.9354 39.1524 62.2681 42.3419 60.6955C45.5067 59.135 49.586 57.7268 54.3962 56.5441C64.0136 54.1796 76.426 52.7477 89.9999 52.7477C103.625 52.7477 116.08 54.1905 125.713 56.571C130.53 57.7616 134.61 59.1789 137.765 60.7485C140.948 62.3318 143.064 64.0077 144.119 65.6463C144.662 66.49 144.91 67.3003 144.91 68.0859C144.91 69.9822 143.418 72.1056 139.928 74.2356C135.572 76.8939 128.662 79.2016 119.996 80.8399C111.355 82.4733 101.061 83.4242 89.9999 83.4242C78.9388 83.4242 68.6446 82.4733 60.0039 80.8399C51.3375 79.2016 44.4282 76.8939 40.072 74.2356C36.5817 72.1056 35.0898 69.9822 35.0898 68.0859C35.0898 67.3013 35.337 66.4921 35.8787 65.6496Z" stroke="black" stroke-width="2.51497"/>
		</mask>
		<g mask="url(#mask6_597_2508)">
			<path d="M35.8787 65.6496L35.9306 65.5703C37.0153 63.9354 39.1524 62.2681 42.3419 60.6955C45.5067 59.135 49.586 57.7268 54.3962 56.5441C64.0136 54.1796 76.426 52.7477 89.9999 52.7477C103.625 52.7477 116.08 54.1905 125.713 56.571C130.53 57.7616 134.61 59.1789 137.765 60.7485C140.948 62.3318 143.064 64.0077 144.119 65.6463C144.662 66.49 144.91 67.3003 144.91 68.0859C144.91 69.9822 143.418 72.1056 139.928 74.2356C135.572 76.8939 128.662 79.2016 119.996 80.8399C111.355 82.4733 101.061 83.4242 89.9999 83.4242C78.9388 83.4242 68.6446 82.4733 60.0039 80.8399C51.3375 79.2016 44.4282 76.8939 40.072 74.2356C36.5817 72.1056 35.0898 69.9822 35.0898 68.0859C35.0898 67.3013 35.337 66.4921 35.8787 65.6496Z" stroke="url(#paint15_linear_597_2508)" stroke-width="2.51497"/>
			<g filter="url(#filter14_f_597_2508)">
				<ellipse cx="86.8562" cy="80.6415" rx="27.4551" ry="15.1063" fill="#91DEFF" fill-opacity="0.905882"/>
			</g>
			<g filter="url(#filter15_f_597_2508)">
				<ellipse cx="93.9819" cy="81.4911" rx="27.4551" ry="15.1063" fill="#EBF6FF"/>
			</g>
		</g>
	
	
		// 发光柱
		<mask id="mask7_597_2508" style="mask-type:alpha" maskUnits="userSpaceOnUse" x="33" y="0" width="114" height="83">
			<path d="M89.9999 82.7658C112.258 82.7658 131.493 78.9403 140.583 73.3931C144.161 71.2094 146.168 68.759 146.168 66.1701V0H33.8323V66.1701C33.8323 68.759 35.8386 71.2094 39.417 73.3931C48.5071 78.9403 67.7415 82.7658 89.9999 82.7658Z" fill="#D9D9D9"/>
		</mask>
		// 发光柱
		<g class="light" mask="url(#mask7_597_2508)">
			<g opacity="0.8" filter="url(#filter16_f_597_2508)">
				<ellipse cx="10.2723" cy="36.3731" rx="10.2723" ry="36.3731" transform="matrix(0.990603 0.136768 -0.132778 0.991146 140.737 24.2539)" fill="#2582FF" fill-opacity="0.57"/>
			</g>
			<g opacity="0.8" filter="url(#filter17_f_597_2508)">
				<ellipse cx="10.2772" cy="36.3561" rx="10.2772" ry="36.3561" transform="matrix(0.974207 -0.225656 0.219279 0.975662 15.8083 26.7659)" fill="#2782FF" fill-opacity="0.57"/>
			</g>
		</g>

		<g class="zmove" transform="translate(60, 0)">
			// 气泡
			<path fill-rule="evenodd" clip-rule="evenodd" d="M27 48.0719C41.3594 48.0719 53 59.2487 53 73.036C53 86.8232 41.3594 98 27 98C12.6406 98 1 86.8232 1 73.036C1 59.2487 12.6406 48.0719 27 48.0719Z" fill="url(#paint0_linear_629_21471)" fill-opacity="0.1"/>
			<path fill-rule="evenodd" clip-rule="evenodd" d="M27 48.0719C41.3594 48.0719 53 59.2487 53 73.036C53 86.8232 41.3594 98 27 98C12.6406 98 1 86.8232 1 73.036C1 59.2487 12.6406 48.0719 27 48.0719Z" fill="url(#paint1_radial_629_21471)" fill-opacity="0.4"/>
			<path d="M1.23209 22.8355C-0.494422 35.3316 7.56145 47.0996 20.0229 50.4492C22.4802 52.0644 24.3889 54.3269 25.5349 56.9509C25.8265 57.6187 26.4733 57.8844 27 57.8844C27.5267 57.8844 28.1735 57.6187 28.4651 56.9509C29.6111 54.3269 31.5198 52.0644 33.9771 50.4492C46.4385 47.0996 54.4944 35.3316 52.7679 22.8355C51.0349 10.2926 39.9934 0.977144 27 1.00004C14.0066 0.977144 2.96508 10.2926 1.23209 22.8355Z" fill="url(#paint2_linear_629_21471)"/>
			<path d="M1.23209 22.8355C-0.494422 35.3316 7.56145 47.0996 20.0229 50.4492C22.4802 52.0644 24.3889 54.3269 25.5349 56.9509C25.8265 57.6187 26.4733 57.8844 27 57.8844C27.5267 57.8844 28.1735 57.6187 28.4651 56.9509C29.6111 54.3269 31.5198 52.0644 33.9771 50.4492C46.4385 47.0996 54.4944 35.3316 52.7679 22.8355C51.0349 10.2926 39.9934 0.977144 27 1.00004C14.0066 0.977144 2.96508 10.2926 1.23209 22.8355Z" fill="#0047FF"/>
			<path d="M1.23209 22.8355C-0.494422 35.3316 7.56145 47.0996 20.0229 50.4492C22.4802 52.0644 24.3889 54.3269 25.5349 56.9509C25.8265 57.6187 26.4733 57.8844 27 57.8844C27.5267 57.8844 28.1735 57.6187 28.4651 56.9509C29.6111 54.3269 31.5198 52.0644 33.9771 50.4492C46.4385 47.0996 54.4944 35.3316 52.7679 22.8355C51.0349 10.2926 39.9934 0.977144 27 1.00004C14.0066 0.977144 2.96508 10.2926 1.23209 22.8355Z" stroke="#6DE5FF" stroke-width="2"/>
			<g filter="url(#filter0_d_629_21471)">
				<path d="M23.92 30.52C21.5733 29.6533 19.0867 29.0933 16.46 28.84V27.04C15.74 27.2267 15.0867 27.3867 14.5 27.52V25.76C16.0733 25.2933 17.34 24.8067 18.3 24.3C17.4733 23.58 16.7 22.7 15.98 21.66C15.7133 21.7667 15.3533 21.8933 14.9 22.04V20.5C15.5133 19.9933 15.9867 19.5 16.32 19.02C16.6667 18.5133 16.9867 17.8267 17.28 16.96H19.94C19.78 17.5067 19.66 17.8667 19.58 18.04H25.44V19.88C24.56 21.8133 23.5067 23.2933 22.28 24.32C23.24 24.8267 24.4867 25.2733 26.02 25.66V27.44C23.58 26.9867 21.6667 26.3867 20.28 25.64C19.32 26.1333 18.1 26.5867 16.62 27C19.3267 27.0933 21.76 27.4733 23.92 28.14V30.52ZM8.28 29.9V27.84C9.33333 26.7067 10.1667 25.5867 10.78 24.48C9.99333 24.5333 9.05333 24.5533 7.96 24.54V22.6C9.05333 21.0533 9.82 19.1867 10.26 17H12.88C12.2933 19.32 11.3867 21.1867 10.16 22.6C10.7333 22.6133 11.2467 22.5933 11.7 22.54C11.98 21.7933 12.1933 21.16 12.34 20.64H14.86C14.4467 22.2133 13.9133 23.56 13.26 24.68C12.6467 25.7467 11.8067 26.8067 10.74 27.86C11.82 27.86 12.9467 27.7533 14.12 27.54V29.4C12.36 29.7733 10.4133 29.94 8.28 29.9ZM24.9 35.08C22.1133 33.8667 18.96 33.0267 15.44 32.56V30.52C19.0667 30.8133 22.22 31.4533 24.9 32.44V35.08ZM7.98 33.82V31.7C10.3933 31.7 12.56 31.5067 14.48 31.12V32.94C12.5067 33.5267 10.34 33.82 7.98 33.82ZM22.5 19.94H18.5C18.1133 20.4067 17.64 20.8 17.08 21.12H18.62C19.1133 21.8133 19.66 22.42 20.26 22.94C21.0733 22.22 21.82 21.22 22.5 19.94ZM29.82 29.48V22.18H35.12V16.88H38.14V18.48H45.84V20.38H38.14V22.18H44.32V26.4C44.32 27.4933 44.1 28.28 43.66 28.76C43.22 29.24 42.4933 29.48 41.48 29.48H29.82ZM32.68 27.48H40.3C40.7133 27.48 41.0067 27.3867 41.18 27.2C41.3667 27 41.46 26.6867 41.46 26.26V24.16H32.68V27.48ZM33.76 34.7C33.68 33.3133 33.5 31.8733 33.22 30.38H35.76C36.12 31.6467 36.38 33.0867 36.54 34.7H33.76ZM43.08 34.7C42.9733 33.3533 42.6733 31.9133 42.18 30.38H44.7C45.2867 31.78 45.6667 33.22 45.84 34.7H43.08ZM38.48 34.7C38.3867 33.3133 38.1267 31.8733 37.7 30.38H40.24C40.7467 31.8467 41.0867 33.2867 41.26 34.7H38.48ZM28.26 34.7C28.42 33.2867 28.76 31.8467 29.28 30.38H31.8C31.3867 31.9133 31.12 33.3533 31 34.7H28.26Z" fill="url(#paint3_linear_629_21471)"/>
			</g>
			
		</g>
	</g>
	
	
	<defs>
	<style>
		.zmove { animation: float 1.6s infinite linear;}
		@keyframes float {
			0%{ transform: translate(60px, 0);}
			25% { transform: translate(60px, 6px);}
			100%{transform: translate(60px, 0px);}
		}
		.circle { animation: circle 1s infinite linear; transform-origin: 50% 50%;}
		@keyframes circle{
			0%{ opacity: 1; transform: translate(0, 0) scale(1);}
			60%{opacity: 0; transform: translate(0, -20px) scale(1.1);}
			100%{opacity: 0; transform: translate(0, -40px) scale(1.2);}
		}
		.light { animation: light 1.8s infinite ease-in-out; transform-origin: 50% 100%;}
		@keyframes light{
			0%{ opacity: 1;}
			10%{opacity: 0.4;}
			20%{ opacity: 0.8; }
			30%{ opacity: 0.4; }
			100%{ opacity: 0;}
		}
	</style>
		<filter id="filter0_ii_597_2508" x="20" y="47.3119" width="140" height="63.7532" filterUnits="userSpaceOnUse" color-interpolation-filters="sRGB">
			<feFlood flood-opacity="0" result="BackgroundImageFix"/>
			<feBlend mode="normal" in="SourceGraphic" in2="BackgroundImageFix" result="shape"/>
			<feColorMatrix in="SourceAlpha" type="matrix" values="0 0 0 0 0 0 0 0 0 0 0 0 0 0 0 0 0 0 127 0" result="hardAlpha"/>
			<feOffset dy="-5.02994"/>
			<feGaussianBlur stdDeviation="3.56287"/>
			<feComposite in2="hardAlpha" operator="arithmetic" k2="-1" k3="1"/>
			<feColorMatrix type="matrix" values="0 0 0 0 0.258824 0 0 0 0 0.815686 0 0 0 0 1 0 0 0 0.67 0"/>
			<feBlend mode="normal" in2="shape" result="effect1_innerShadow_597_2508"/>
			<feColorMatrix in="SourceAlpha" type="matrix" values="0 0 0 0 0 0 0 0 0 0 0 0 0 0 0 0 0 0 127 0" result="hardAlpha"/>
			<feOffset dy="-2.93413"/>
			<feGaussianBlur stdDeviation="1.25748"/>
			<feComposite in2="hardAlpha" operator="arithmetic" k2="-1" k3="1"/>
			<feColorMatrix type="matrix" values="0 0 0 0 1 0 0 0 0 1 0 0 0 0 1 0 0 0 0.33 0"/>
			<feBlend mode="normal" in2="effect1_innerShadow_597_2508" result="effect2_innerShadow_597_2508"/>
		</filter>
		<filter id="filter1_f_597_2508" x="-11.8573" y="42.4214" width="61.1095" height="91.3321" filterUnits="userSpaceOnUse" color-interpolation-filters="sRGB">
			<feFlood flood-opacity="0" result="BackgroundImageFix"/>
			<feBlend mode="normal" in="SourceGraphic" in2="BackgroundImageFix" result="shape"/>
			<feGaussianBlur stdDeviation="2.09581" result="effect1_foregroundBlur_597_2508"/>
		</filter>
		<filter id="filter2_f_597_2508" x="1.95507" y="40.657" width="78.7694" height="115.415" filterUnits="userSpaceOnUse" color-interpolation-filters="sRGB">
			<feFlood flood-opacity="0" result="BackgroundImageFix"/>
			<feBlend mode="normal" in="SourceGraphic" in2="BackgroundImageFix" result="shape"/>
			<feGaussianBlur stdDeviation="7.33533" result="effect1_foregroundBlur_597_2508"/>
		</filter>
		<filter id="filter3_f_597_2508" x="95.6169" y="44.2624" width="57.1303" height="130.17" filterUnits="userSpaceOnUse" color-interpolation-filters="sRGB">
			<feFlood flood-opacity="0" result="BackgroundImageFix"/>
			<feBlend mode="normal" in="SourceGraphic" in2="BackgroundImageFix" result="shape"/>
			<feGaussianBlur stdDeviation="7.33533" result="effect1_foregroundBlur_597_2508"/>
		</filter>
		<filter id="filter4_f_597_2508" x="133.078" y="31.6187" width="53.2627" height="105.294" filterUnits="userSpaceOnUse" color-interpolation-filters="sRGB">
			<feFlood flood-opacity="0" result="BackgroundImageFix"/>
			<feBlend mode="normal" in="SourceGraphic" in2="BackgroundImageFix" result="shape"/>
			<feGaussianBlur stdDeviation="2.09581" result="effect1_foregroundBlur_597_2508"/>
		</filter>
		<filter id="filter5_f_597_2508" x="109.505" y="24.5925" width="120.433" height="107.874" filterUnits="userSpaceOnUse" color-interpolation-filters="sRGB">
			<feFlood flood-opacity="0" result="BackgroundImageFix"/>
			<feBlend mode="normal" in="SourceGraphic" in2="BackgroundImageFix" result="shape"/>
			<feGaussianBlur stdDeviation="7.33533" result="effect1_foregroundBlur_597_2508"/>
		</filter>
		<filter id="filter6_f_597_2508" x="-26.1085" y="49.6316" width="76.8298" height="102.109" filterUnits="userSpaceOnUse" color-interpolation-filters="sRGB">
			<feFlood flood-opacity="0" result="BackgroundImageFix"/>
			<feBlend mode="normal" in="SourceGraphic" in2="BackgroundImageFix" result="shape"/>
			<feGaussianBlur stdDeviation="7.12575" result="effect1_foregroundBlur_597_2508"/>
		</filter>
		<filter id="filter7_f_597_2508" x="97.3635" y="67.2348" width="59.4883" height="101.405" filterUnits="userSpaceOnUse" color-interpolation-filters="sRGB">
			<feFlood flood-opacity="0" result="BackgroundImageFix"/>
			<feBlend mode="normal" in="SourceGraphic" in2="BackgroundImageFix" result="shape"/>
			<feGaussianBlur stdDeviation="7.12575" result="effect1_foregroundBlur_597_2508"/>
		</filter>
		<filter id="filter8_f_597_2508" x="134.127" y="50.3347" width="71.9742" height="91.5462" filterUnits="userSpaceOnUse" color-interpolation-filters="sRGB">
			<feFlood flood-opacity="0" result="BackgroundImageFix"/>
			<feBlend mode="normal" in="SourceGraphic" in2="BackgroundImageFix" result="shape"/>
			<feGaussianBlur stdDeviation="7.12575" result="effect1_foregroundBlur_597_2508"/>
		</filter>
		<filter id="filter9_d_597_2508" x="33.8323" y="85.1565" width="11.5989" height="12.3691" filterUnits="userSpaceOnUse" color-interpolation-filters="sRGB">
			<feFlood flood-opacity="0" result="BackgroundImageFix"/>
			<feColorMatrix in="SourceAlpha" type="matrix" values="0 0 0 0 0 0 0 0 0 0 0 0 0 0 0 0 0 0 127 0" result="hardAlpha"/>
			<feOffset/>
			<feGaussianBlur stdDeviation="1.67665"/>
			<feComposite in2="hardAlpha" operator="out"/>
			<feColorMatrix type="matrix" values="0 0 0 0 0.145098 0 0 0 0 0.729412 0 0 0 0 1 0 0 0 1 0"/>
			<feBlend mode="normal" in2="BackgroundImageFix" result="effect1_dropShadow_597_2508"/>
			<feBlend mode="normal" in="SourceGraphic" in2="effect1_dropShadow_597_2508" result="shape"/>
		</filter>
		<filter id="filter10_d_597_2508" x="40.539" y="87.2854" width="11.5235" height="12.9065" filterUnits="userSpaceOnUse" color-interpolation-filters="sRGB">
			<feFlood flood-opacity="0" result="BackgroundImageFix"/>
			<feColorMatrix in="SourceAlpha" type="matrix" values="0 0 0 0 0 0 0 0 0 0 0 0 0 0 0 0 0 0 127 0" result="hardAlpha"/>
			<feOffset/>
			<feGaussianBlur stdDeviation="1.67665"/>
			<feComposite in2="hardAlpha" operator="out"/>
			<feColorMatrix type="matrix" values="0 0 0 0 0.145098 0 0 0 0 0.729412 0 0 0 0 1 0 0 0 1 0"/>
			<feBlend mode="normal" in2="BackgroundImageFix" result="effect1_dropShadow_597_2508"/>
			<feBlend mode="normal" in="SourceGraphic" in2="effect1_dropShadow_597_2508" result="shape"/>
		</filter>
		<filter id="filter11_f_597_2508" x="61.8027" y="60.5359" width="97.8657" height="44.8833" filterUnits="userSpaceOnUse" color-interpolation-filters="sRGB">
			<feFlood flood-opacity="0" result="BackgroundImageFix"/>
			<feBlend mode="normal" in="SourceGraphic" in2="BackgroundImageFix" result="shape"/>
			<feGaussianBlur stdDeviation="7.33533" result="effect1_foregroundBlur_597_2508"/>
		</filter>
		<filter id="filter12_f_597_2508" x="71.978" y="75.7288" width="77.7374" height="17.2598" filterUnits="userSpaceOnUse" color-interpolation-filters="sRGB">
			<feFlood flood-opacity="0" result="BackgroundImageFix"/>
			<feBlend mode="normal" in="SourceGraphic" in2="BackgroundImageFix" result="shape"/>
			<feGaussianBlur stdDeviation="2.30539" result="effect1_foregroundBlur_597_2508"/>
		</filter>
		<filter id="filter13_f_597_2508" x="-4.29075" y="17.254" width="109.615" height="63.4473" filterUnits="userSpaceOnUse" color-interpolation-filters="sRGB">
			<feFlood flood-opacity="0" result="BackgroundImageFix"/>
			<feBlend mode="normal" in="SourceGraphic" in2="BackgroundImageFix" result="shape"/>
			<feGaussianBlur stdDeviation="10.2695" result="effect1_foregroundBlur_597_2508"/>
		</filter>
		<filter id="filter14_f_597_2508" x="45.1496" y="51.2837" width="83.4131" height="58.7156" filterUnits="userSpaceOnUse" color-interpolation-filters="sRGB">
			<feFlood flood-opacity="0" result="BackgroundImageFix"/>
			<feBlend mode="normal" in="SourceGraphic" in2="BackgroundImageFix" result="shape"/>
			<feGaussianBlur stdDeviation="7.12575" result="effect1_foregroundBlur_597_2508"/>
		</filter>
		<filter id="filter15_f_597_2508" x="52.2754" y="52.1333" width="83.4131" height="58.7156" filterUnits="userSpaceOnUse" color-interpolation-filters="sRGB">
			<feFlood flood-opacity="0" result="BackgroundImageFix"/>
			<feBlend mode="normal" in="SourceGraphic" in2="BackgroundImageFix" result="shape"/>
			<feGaussianBlur stdDeviation="7.12575" result="effect1_foregroundBlur_597_2508"/>
		</filter>
		<filter id="filter16_f_597_2508" x="118.469" y="9.28368" width="55.2273" height="104.852" filterUnits="userSpaceOnUse" color-interpolation-filters="sRGB">
			<feFlood flood-opacity="0" result="BackgroundImageFix"/>
			<feBlend mode="normal" in="SourceGraphic" in2="BackgroundImageFix" result="shape"/>
			<feGaussianBlur stdDeviation="8.17365" result="effect1_foregroundBlur_597_2508"/>
		</filter>
		<filter id="filter17_f_597_2508" x="4.64647" y="8.02245" width="58.2923" height="103.791" filterUnits="userSpaceOnUse" color-interpolation-filters="sRGB">
			<feFlood flood-opacity="0" result="BackgroundImageFix"/>
			<feBlend mode="normal" in="SourceGraphic" in2="BackgroundImageFix" result="shape"/>
			<feGaussianBlur stdDeviation="8.17365" result="effect1_foregroundBlur_597_2508"/>
		</filter>
		<filter id="filter18_d_597_2508" x="15.296" y="129.632" width="148.352" height="29.912" filterUnits="userSpaceOnUse" color-interpolation-filters="sRGB">
			<feFlood flood-opacity="0" result="BackgroundImageFix"/>
			<feColorMatrix in="SourceAlpha" type="matrix" values="0 0 0 0 0 0 0 0 0 0 0 0 0 0 0 0 0 0 127 0" result="hardAlpha"/>
			<feOffset dy="4"/>
			<feGaussianBlur stdDeviation="2"/>
			<feComposite in2="hardAlpha" operator="out"/>
			<feColorMatrix type="matrix" values="0 0 0 0 0.00829525 0 0 0 0 0 0 0 0 0 0.414762 0 0 0 0.5 0"/>
			<feBlend mode="normal" in2="BackgroundImageFix" result="effect1_dropShadow_597_2508"/>
			<feBlend mode="normal" in="SourceGraphic" in2="effect1_dropShadow_597_2508" result="shape"/>
		</filter>
		
		<filter id="filter0_d_629_21471" x="3.95996" y="14.88" width="45.88" height="26.2" filterUnits="userSpaceOnUse" color-interpolation-filters="sRGB">
			<feFlood flood-opacity="0" result="BackgroundImageFix"/>
			<feColorMatrix in="SourceAlpha" type="matrix" values="0 0 0 0 0 0 0 0 0 0 0 0 0 0 0 0 0 0 127 0" result="hardAlpha"/>
			<feOffset dy="2"/>
			<feGaussianBlur stdDeviation="2"/>
			<feComposite in2="hardAlpha" operator="out"/>
			<feColorMatrix type="matrix" values="0 0 0 0 0 0 0 0 0 0 0 0 0 0 0 0 0 0 0.3 0"/>
			<feBlend mode="normal" in2="BackgroundImageFix" result="effect1_dropShadow_629_21471"/>
			<feBlend mode="normal" in="SourceGraphic" in2="effect1_dropShadow_629_21471" result="shape"/>
		</filter>
		
		<linearGradient id="paint0_linear_597_2508" x1="90.0001" y1="97.4473" x2="90.0001" y2="120" gradientUnits="userSpaceOnUse">
			<stop offset="0.098092" stop-color="#D9D9D9" stop-opacity="0"/>
			<stop offset="1" stop-color="#D9D9D9" stop-opacity="0.87"/>
		</linearGradient>
		<linearGradient id="paint1_linear_597_2508" x1="40.9582" y1="120" x2="137.365" y2="120" gradientUnits="userSpaceOnUse">
			<stop offset="0.098092" stop-color="#D9D9D9" stop-opacity="0"/>
			<stop offset="0.253017" stop-color="#D9D9D9" stop-opacity="0.180373"/>
			<stop offset="0.38712" stop-color="#D9D9D9" stop-opacity="0.82172"/>
			<stop offset="0.457557" stop-color="#D9D9D9"/>
			<stop offset="0.67274" stop-color="#D9D9D9" stop-opacity="0.162646"/>
			<stop offset="0.871024" stop-color="#D9D9D9" stop-opacity="0"/>
		</linearGradient>
		<linearGradient id="paint2_linear_597_2508" x1="90.0001" y1="97.4473" x2="90.0001" y2="120" gradientUnits="userSpaceOnUse">
			<stop offset="0.098092" stop-color="#D9D9D9" stop-opacity="0"/>
			<stop offset="1" stop-color="#D9D9D9" stop-opacity="0.87"/>
		</linearGradient>
		<radialGradient id="paint3_radial_597_2508" cx="0" cy="0" r="1" gradientUnits="userSpaceOnUse" gradientTransform="translate(89.7905 97.66) rotate(90) scale(20.2127 68.1138)">
			<stop offset="0.664349" stop-color="white" stop-opacity="0"/>
			<stop offset="1" stop-color="white"/>
		</radialGradient>
		<linearGradient id="paint4_linear_597_2508" x1="90" y1="71.0645" x2="90" y2="111.49" gradientUnits="userSpaceOnUse">
			<stop offset="0.101307" stop-color="#2488FF" stop-opacity="0.109804"/>
			<stop offset="1" stop-color="#248CFF" stop-opacity="0.756863"/>
		</linearGradient>
		<linearGradient id="paint5_linear_597_2508" x1="90" y1="70.6387" x2="90" y2="111.064" gradientUnits="userSpaceOnUse">
			<stop offset="0.67036" stop-color="#2896FF" stop-opacity="0"/>
			<stop offset="1" stop-color="#2896FF" stop-opacity="0.172549"/>
		</linearGradient>
		<radialGradient id="paint6_radial_597_2508" cx="0" cy="0" r="1" gradientUnits="userSpaceOnUse" gradientTransform="translate(85.3892 111.064) rotate(90) scale(9.99998 30.1996)">
			<stop stop-color="#2797FF" stop-opacity="0.376471"/>
			<stop offset="1" stop-color="#2797FF" stop-opacity="0"/>
		</radialGradient>
		<radialGradient id="paint7_radial_597_2508" cx="0" cy="0" r="1" gradientUnits="userSpaceOnUse" gradientTransform="translate(90 111.064) rotate(90) scale(5.10637 13.5773)">
			<stop stop-color="#2797FF" stop-opacity="0.376471"/>
			<stop offset="1" stop-color="#2797FF" stop-opacity="0"/>
		</radialGradient>
		<linearGradient id="paint8_linear_597_2508" x1="36.3473" y1="93.6186" x2="106.197" y2="105.396" gradientUnits="userSpaceOnUse">
			<stop stop-color="#1BB1FF" stop-opacity="0"/>
			<stop offset="0.407828" stop-color="#1BB1FF" stop-opacity="0.580392"/>
			<stop offset="0.481962" stop-color="#1BB1FF" stop-opacity="0.580392"/>
			<stop offset="1" stop-color="#1BB1FF" stop-opacity="0"/>
		</linearGradient>
		<linearGradient id="paint9_linear_597_2508" x1="19.1619" y1="64.2591" x2="158.324" y2="64.2591" gradientUnits="userSpaceOnUse">
			<stop stop-color="#83A5EC" stop-opacity="0"/>
			<stop offset="0.225624" stop-color="#83A5EC" stop-opacity="0.701961"/>
			<stop offset="0.515689" stop-color="#83A5EC"/>
			<stop offset="0.795142" stop-color="#83A5EC" stop-opacity="0.858824"/>
			<stop offset="1" stop-color="#83A5EC" stop-opacity="0"/>
		</linearGradient>
		<linearGradient id="paint10_linear_597_2508" x1="23.7725" y1="77.4474" x2="156.228" y2="77.4474" gradientUnits="userSpaceOnUse">
			<stop stop-color="#33C4FF" stop-opacity="0"/>
			<stop offset="0.188485" stop-color="#33C4FF" stop-opacity="0.137255"/>
			<stop offset="0.503814" stop-color="#30C7FF" stop-opacity="0.145098"/>
			<stop offset="0.770759" stop-color="#34C7FF" stop-opacity="0.5"/>
			<stop offset="1" stop-color="#30C7FF" stop-opacity="0"/>
		</linearGradient>
		<linearGradient id="paint11_linear_597_2508" x1="89.9999" y1="40.8517" x2="89.9999" y2="78.7239" gradientUnits="userSpaceOnUse">
			<stop offset="0.0782727" stop-opacity="0"/>
			<stop offset="0.341032"/>
		</linearGradient>
		<linearGradient id="paint12_linear_597_2508" x1="22.5149" y1="60.0006" x2="157.485" y2="60.0006" gradientUnits="userSpaceOnUse">
			<stop stop-color="#AEC7FF" stop-opacity="0.470588"/>
			<stop offset="0.113408" stop-color="#ADC8FF" stop-opacity="0.368627"/>
			<stop offset="0.248015" stop-color="#B1C7FF" stop-opacity="0.0901961"/>
			<stop offset="0.460278" stop-color="#AFCFFF" stop-opacity="0.0627451"/>
			<stop offset="0.672542" stop-color="#B0C4FF" stop-opacity="0.101961"/>
			<stop offset="0.829583" stop-color="#AEC9FF" stop-opacity="0.223529"/>
			<stop offset="1" stop-color="#ADC6FF" stop-opacity="0.356863"/>
		</linearGradient>
		<linearGradient id="paint13_linear_597_2508" x1="90.0002" y1="51.4902" x2="90.0002" y2="84.6817" gradientUnits="userSpaceOnUse">
			<stop stop-color="#7FBFFF" stop-opacity="0.0156863"/>
			<stop offset="0.51318" stop-color="#93B5FF" stop-opacity="0.32549"/>
			<stop offset="0.870161" stop-color="#92B5FF" stop-opacity="0.737255"/>
		</linearGradient>
		<linearGradient id="paint14_linear_597_2508" x1="89.9999" y1="51.4902" x2="89.9999" y2="84.6817" gradientUnits="userSpaceOnUse">
			<stop stop-color="#7FBFFF" stop-opacity="0.0156863"/>
			<stop offset="0.51318" stop-color="#93B5FF" stop-opacity="0.32549"/>
			<stop offset="0.870161" stop-color="#92B5FF" stop-opacity="0.737255"/>
		</linearGradient>
		<linearGradient id="paint15_linear_597_2508" x1="33.8323" y1="68.0859" x2="146.168" y2="68.0859" gradientUnits="userSpaceOnUse">
			<stop stop-color="#A2E4FF" stop-opacity="0.380392"/>
			<stop offset="0.152974" stop-color="#6DD3FF" stop-opacity="0.27451"/>
			<stop offset="0.51318" stop-color="#77D6FF" stop-opacity="0.717647"/>
			<stop offset="0.799163" stop-color="#6DD4FF" stop-opacity="0.329412"/>
			<stop offset="1" stop-color="#72D4FF" stop-opacity="0.427451"/>
		</linearGradient>
		
		<linearGradient id="paint0_linear_629_21471" x1="12.2037" y1="48.0719" x2="12.2037" y2="76.4854" gradientUnits="userSpaceOnUse">
			<stop stop-color="#00BFFF"/>
			<stop offset="0.463181" stop-color="#00D3FF" stop-opacity="0.411765"/>
			<stop offset="1" stop-color="#00E1FF" stop-opacity="0.01"/>
		</linearGradient>
		<radialGradient id="paint1_radial_629_21471" cx="0" cy="0" r="1" gradientUnits="userSpaceOnUse" gradientTransform="translate(27.0001 48.0719) rotate(90) scale(19.8156 20.6279)">
			<stop stop-color="#00B6FF"/>
			<stop offset="0.469806" stop-color="#0091FF" stop-opacity="0.219608"/>
			<stop offset="1" stop-color="#0087FF" stop-opacity="0.01"/>
		</radialGradient>
		<linearGradient id="paint2_linear_629_21471" x1="2.0001" y1="2" x2="2.0001" y2="58" gradientUnits="userSpaceOnUse">
			<stop stop-color="#00DCFF"/>
			<stop offset="1" stop-color="#0050D2"/>
		</linearGradient>
		<linearGradient id="paint3_linear_629_21471" x1="27" y1="16" x2="27" y2="36" gradientUnits="userSpaceOnUse">
			<stop stop-color="white"/>
			<stop offset="1" stop-color="#A4CEFF"/>
		</linearGradient>
	</defs>
</svg>
