<svg width="160" height="149" viewBox="0 0 160 149" fill="none" xmlns="http://www.w3.org/2000/svg">
	<g opacity="0.75">
		<path d="M113.939 72.1314C108.612 70.8397 102.953 69.8917 97.2325 69.2771C91.6361 68.6729 85.8431 68.35 80.1225 68.3292C74.3916 68.2979 68.609 68.5583 63.0022 69.1C57.2713 69.6626 51.6025 70.548 46.2646 71.7772C40.6682 73.0689 35.8683 74.6628 31.9477 76.4649C27.7788 78.3817 24.572 80.5692 22.5341 82.9235C20.341 85.4548 19.4928 88.1945 20.2997 90.9759C21.1686 93.9864 23.9513 97.0491 29.0098 99.9033C34.4304 102.966 41.7958 105.435 50.4749 107.174C59.4851 108.977 69.5607 109.945 79.8536 109.997C90.1465 110.05 100.243 109.206 109.274 107.487C117.973 105.841 125.37 103.456 130.842 100.445C135.942 97.6428 138.776 94.6115 139.676 91.6113C140.514 88.83 139.697 86.0799 137.545 83.5277C135.539 81.1526 132.363 78.9338 128.215 76.9649C124.325 75.1211 119.536 73.4856 113.949 72.1314" fill="url(#paint0_linear_597_2465)"/>
		<mask id="mask0_597_2465" style="mask-type:alpha" maskUnits="userSpaceOnUse" x="20" y="68" width="120" height="43">
			<path d="M113.939 72.132C108.612 70.8403 102.953 69.8923 97.2325 69.2777C91.6361 68.6735 85.8431 68.3506 80.1225 68.3298C74.3916 68.2985 68.609 68.559 63.0022 69.1006C57.2713 69.6632 51.6025 70.5486 46.2646 71.7778C40.6682 73.0696 35.8683 74.6634 31.9477 76.4655C27.7788 78.3823 24.572 80.5698 22.5341 82.9241C20.341 85.4555 19.4928 88.1951 20.2997 90.9765C21.1686 93.987 23.9513 97.0497 29.0098 99.9039C34.4304 102.967 41.7958 105.435 50.4749 107.175C59.4851 108.977 69.5607 109.946 79.8536 109.998C90.1465 110.05 100.243 109.206 109.274 107.488C117.973 105.842 125.37 103.456 130.842 100.446C135.942 97.6434 138.776 94.6121 139.676 91.6119C140.514 88.8306 139.697 86.0805 137.545 83.5283C135.539 81.1532 132.363 78.9344 128.215 76.9655C124.325 75.1217 119.536 73.4862 113.949 72.132" fill="#E6CECC"/>
		</mask>
		<g mask="url(#mask0_597_2465)">
			<g filter="url(#filter0_f_597_2465)">
				<ellipse cx="79.4813" cy="98.5379" rx="55.3437" ry="19.7924" fill="#6B94B8" fill-opacity="0.192157"/>
			</g>
			<g filter="url(#filter1_f_597_2465)">
				<ellipse cx="79.4814" cy="109.475" rx="30.5166" ry="14.0631" fill="#6895B6" fill-opacity="0.772549"/>
			</g>
		</g>
		<path d="M101.413 63.4212C98.0303 62.6086 94.4407 62.0253 90.7994 61.6294C87.2409 61.244 83.5686 61.0565 79.9273 61.0356C76.2859 61.0148 72.6136 61.1711 69.0447 61.5253C65.4034 61.8794 61.8035 62.4315 58.4105 63.2024C54.8623 64.0149 51.8003 65.0046 49.3176 66.14C46.6693 67.338 44.6314 68.713 43.3384 70.1818C41.9419 71.7652 41.4039 73.4841 41.9108 75.2237C42.4591 77.1092 44.228 79.0259 47.4452 80.8177C50.8899 82.7344 55.5657 84.2761 61.0794 85.3699C66.7999 86.5054 73.2033 87.0992 79.7411 87.1408C86.2788 87.1721 92.6925 86.6408 98.4338 85.5679C103.958 84.5366 108.665 83.0365 112.13 81.1614C115.368 79.401 117.168 77.505 117.747 75.63C118.275 73.8903 117.757 72.1715 116.392 70.5673C115.12 69.0776 113.102 67.6922 110.465 66.4629C107.992 65.3066 104.951 64.2858 101.403 63.4316" fill="url(#paint1_linear_597_2465)"/>
		<mask id="path-6-inside-1_597_2465" fill="white">
			<path d="M113.939 72.1314C108.612 70.8397 102.953 69.8917 97.2325 69.2771C91.6361 68.6729 85.8431 68.35 80.1225 68.3292C74.3916 68.2979 68.609 68.5583 63.0022 69.1C57.2713 69.6626 51.6025 70.548 46.2646 71.7772C40.6682 73.0689 35.8683 74.6628 31.9477 76.4649C27.7788 78.3817 24.572 80.5692 22.5341 82.9235C20.341 85.4548 19.4928 88.1945 20.2997 90.9759C21.1686 93.9864 23.9513 97.0491 29.0098 99.9033C34.4304 102.966 41.7958 105.435 50.4749 107.174C59.4851 108.977 69.5607 109.945 79.8536 109.997C90.1465 110.05 100.243 109.206 109.274 107.487C117.973 105.841 125.37 103.456 130.842 100.445C135.942 97.6428 138.776 94.6115 139.676 91.6113C140.514 88.83 139.697 86.0799 137.545 83.5277C135.539 81.1526 132.363 78.9338 128.215 76.9649C124.325 75.1211 119.536 73.4856 113.949 72.1314"/>
		</mask>
		<path d="M97.2325 69.2771L97.0105 71.3341L97.0115 71.3342L97.2325 69.2771ZM80.1225 68.3292L80.1113 70.3981L80.115 70.3981L80.1225 68.3292ZM63.0022 69.1L62.8033 67.0407L62.8001 67.041L63.0022 69.1ZM46.2646 71.7772L45.8004 69.7611L45.7993 69.7613L46.2646 71.7772ZM31.9477 76.4649L31.0836 74.5851L31.0834 74.5852L31.9477 76.4649ZM22.5341 82.9235L24.0978 84.2782L24.0984 84.2776L22.5341 82.9235ZM20.2997 90.9759L22.2874 90.4022L22.2867 90.3995L20.2997 90.9759ZM29.0098 99.9033L30.0276 98.102L30.0265 98.1015L29.0098 99.9033ZM50.4749 107.174L50.0683 109.203L50.0691 109.203L50.4749 107.174ZM109.274 107.487L108.889 105.454L108.887 105.455L109.274 107.487ZM130.842 100.445L129.846 98.6318L129.845 98.6323L130.842 100.445ZM139.676 91.6113L137.695 91.0145L137.695 91.0169L139.676 91.6113ZM137.545 83.5277L139.127 82.1941L139.126 82.1924L137.545 83.5277ZM128.215 76.9649L129.102 75.0958L129.101 75.0954L128.215 76.9649ZM114.427 70.1207C109.001 68.8052 103.252 67.8431 97.4535 67.22L97.0115 71.3342C102.654 71.9404 108.222 72.8742 113.452 74.1421L114.427 70.1207ZM97.4546 67.2202C91.7865 66.6082 85.9219 66.2814 80.1301 66.2603L80.115 70.3981C85.7644 70.4187 91.4857 70.7376 97.0105 71.3341L97.4546 67.2202ZM80.1338 66.2603C74.3339 66.2287 68.4811 66.4922 62.8033 67.0407L63.2012 71.1594C68.7369 70.6245 74.4493 70.3672 80.1113 70.3981L80.1338 66.2603ZM62.8001 67.041C56.9935 67.611 51.236 68.5093 45.8004 69.7611L46.7289 73.7934C51.9689 72.5867 57.5491 71.7142 63.2043 71.1591L62.8001 67.041ZM45.7993 69.7613C40.0981 71.0772 35.1592 72.7117 31.0836 74.5851L32.8118 78.3447C36.5774 76.6139 41.2383 75.0607 46.7299 73.7931L45.7993 69.7613ZM31.0834 74.5852C26.769 76.5688 23.2731 78.9086 20.9698 81.5694L24.0984 84.2776C25.8709 82.2299 28.7886 80.1945 32.812 78.3447L31.0834 74.5852ZM20.9704 81.5688C18.4536 84.4738 17.2588 87.9197 18.3127 91.5523L22.2867 90.3995C21.7267 88.4694 22.2285 86.4359 24.0978 84.2782L20.9704 81.5688ZM18.3119 91.5496C19.4006 95.3214 22.738 98.74 27.9931 101.705L30.0265 98.1015C25.1647 95.3581 22.9367 92.6515 22.2874 90.4022L18.3119 91.5496ZM27.9921 101.705C33.6697 104.912 41.2654 107.439 50.0683 109.203L50.8815 105.146C42.3261 103.431 35.1911 101.019 30.0276 98.102L27.9921 101.705ZM50.0691 109.203C59.2238 111.034 69.4329 112.014 79.8431 112.066L79.8641 107.929C69.6885 107.877 59.7463 106.919 50.8807 105.146L50.0691 109.203ZM79.8431 112.066C90.2497 112.119 100.481 111.267 109.66 109.519L108.887 105.455C100.005 107.145 90.0432 107.98 79.8641 107.929L79.8431 112.066ZM109.658 109.52C118.482 107.851 126.109 105.41 131.839 102.258L129.845 98.6323C124.631 101.501 117.465 103.832 108.889 105.454L109.658 109.52ZM131.838 102.258C137.13 99.3505 140.529 95.9697 141.658 92.2058L137.695 91.0169C137.024 93.2532 134.754 95.9351 129.846 98.6318L131.838 102.258ZM141.657 92.2081C142.75 88.5823 141.598 85.1244 139.127 82.1941L135.964 84.8612C137.797 87.0353 138.279 89.0776 137.695 91.0145L141.657 92.2081ZM139.126 82.1924C136.857 79.5068 133.393 77.1325 129.102 75.0958L127.328 78.834C131.333 80.735 134.221 82.7984 135.965 84.863L139.126 82.1924ZM129.101 75.0954C125.053 73.1766 120.123 71.4992 114.437 70.1207L113.462 74.1421C118.948 75.472 123.597 77.0656 127.328 78.8344L129.101 75.0954Z" fill="url(#paint2_linear_597_2465)" mask="url(#path-6-inside-1_597_2465)"/>
		<mask id="path-8-inside-2_597_2465" fill="white">
			<path d="M93.549 93.6198C91.6663 93.1718 89.6698 92.8385 87.6422 92.6197C85.6664 92.4114 83.6182 92.2968 81.5906 92.2864C79.5631 92.2864 77.5148 92.3697 75.539 92.5572C73.5115 92.7551 71.5046 93.0677 69.6219 93.4948C67.6461 93.9531 65.9496 94.5052 64.5634 95.1302C63.0945 95.7969 61.9566 96.5678 61.2428 97.3907C60.4669 98.2762 60.1669 99.2346 60.4462 100.214C60.7566 101.266 61.7393 102.339 63.5289 103.339C65.4427 104.412 68.0495 105.276 71.1115 105.881C74.2977 106.516 77.8562 106.849 81.4975 106.87C85.1388 106.891 88.7077 106.589 91.8939 105.995C94.9662 105.422 97.5834 104.579 99.5178 103.526C101.318 102.547 102.321 101.485 102.642 100.433C102.942 99.4637 102.642 98.495 101.887 97.5991C101.173 96.7657 100.056 95.9949 98.5868 95.3073C97.211 94.6615 95.5145 94.0885 93.549 93.6093"/>
		</mask>
		<path d="M87.6422 92.6197L87.7532 91.5912L87.7507 91.591L87.6422 92.6197ZM81.5906 92.2864L81.5959 91.2519H81.5906V92.2864ZM75.539 92.5572L75.4413 91.5274L75.4385 91.5277L75.539 92.5572ZM69.6219 93.4948L69.3931 92.4859L69.3881 92.4871L69.6219 93.4948ZM64.5634 95.1302L64.1382 94.1872L64.1359 94.1883L64.5634 95.1302ZM61.2428 97.3907L62.0208 98.0725L62.0243 98.0685L61.2428 97.3907ZM60.4462 100.214L59.4514 100.498L59.454 100.506L60.4462 100.214ZM63.5289 103.339L64.0348 102.437L64.0336 102.436L63.5289 103.339ZM71.1115 105.881L71.3139 104.866L71.3118 104.866L71.1115 105.881ZM91.8939 105.995L92.0834 107.012L92.0835 107.012L91.8939 105.995ZM99.5178 103.526L100.012 104.435L100.012 104.435L99.5178 103.526ZM102.642 100.433L101.654 100.127L101.652 100.131L102.642 100.433ZM101.887 97.5991L102.678 96.9323L102.672 96.9262L101.887 97.5991ZM98.5868 95.3073L98.1472 96.2437L98.1483 96.2442L98.5868 95.3073ZM93.7884 92.6134C91.859 92.1543 89.8192 91.8141 87.7532 91.5912L87.5313 93.6482C89.5203 93.8628 91.4736 94.1893 93.3096 94.6261L93.7884 92.6134ZM87.7507 91.591C85.7408 91.379 83.6582 91.2625 81.5959 91.2519L81.5853 93.3208C83.5782 93.3311 85.592 93.4437 87.5337 93.6485L87.7507 91.591ZM81.5906 91.2519C79.5356 91.2519 77.4544 91.3363 75.4413 91.5274L75.6368 93.5871C77.5753 93.4031 79.5905 93.3208 81.5906 93.3208V91.2519ZM75.4385 91.5277C73.3731 91.7293 71.323 92.0481 69.3931 92.4859L69.8508 94.5036C71.6863 94.0872 73.6499 93.781 75.6395 93.5868L75.4385 91.5277ZM69.3881 92.4871C67.3646 92.9565 65.6008 93.5277 64.1382 94.1872L64.9886 96.0733C66.2984 95.4827 67.9276 94.9497 69.8557 94.5025L69.3881 92.4871ZM64.1359 94.1883C62.5937 94.8882 61.3093 95.7352 60.4613 96.7129L62.0243 98.0685C62.6038 97.4004 63.5953 96.7057 64.9909 96.0722L64.1359 94.1883ZM60.4647 96.709C59.5245 97.782 59.0509 99.0931 59.4515 100.498L61.441 99.93C61.283 99.376 61.4093 98.7703 62.0208 98.0725L60.4647 96.709ZM59.454 100.506C59.8763 101.938 61.1369 103.187 63.0243 104.242L64.0336 102.436C62.3418 101.49 61.6369 100.594 61.4384 99.9211L59.454 100.506ZM63.0231 104.241C65.0655 105.386 67.7875 106.279 70.9113 106.896L71.3118 104.866C68.3116 104.274 65.8199 103.437 64.0348 102.437L63.0231 104.241ZM70.9092 106.895C74.1688 107.545 77.794 107.884 81.4916 107.905L81.5034 105.836C77.9185 105.815 74.4265 105.487 71.3139 104.866L70.9092 106.895ZM81.4916 107.905C85.1911 107.926 88.8259 107.619 92.0834 107.012L91.7043 104.978C88.5895 105.559 85.0866 105.856 81.5034 105.836L81.4916 107.905ZM92.0835 107.012C95.2199 106.427 97.9507 105.556 100.012 104.435L99.0236 102.618C97.2161 103.601 94.7125 104.417 91.7042 104.978L92.0835 107.012ZM100.012 104.435C101.907 103.404 103.194 102.168 103.631 100.734L101.652 100.131C101.448 100.801 100.728 101.69 99.0235 102.618L100.012 104.435ZM103.63 100.739C104.065 99.3339 103.584 98.0074 102.678 96.9324L101.096 98.2658C101.7 98.9825 101.819 99.5936 101.654 100.127L103.63 100.739ZM102.672 96.9262C101.827 95.9389 100.566 95.0913 99.0253 94.3704L98.1483 96.2442C99.5459 96.8984 100.519 97.5926 101.101 98.272L102.672 96.9262ZM99.0264 94.3709C97.5721 93.6882 95.8066 93.095 93.794 92.6043L93.304 94.6144C95.2223 95.0821 96.8499 95.6347 98.1472 96.2437L99.0264 94.3709Z" fill="url(#paint3_linear_597_2465)" mask="url(#path-8-inside-2_597_2465)"/>
		<g filter="url(#filter2_dd_597_2465)">
			<mask id="path-10-inside-3_597_2465" fill="white">
				<path d="M113.939 72.1314C108.612 70.8397 102.953 69.8917 97.2325 69.2771C91.6361 68.6729 85.8431 68.35 80.1225 68.3292C74.3916 68.2979 68.609 68.5583 63.0022 69.1C57.2713 69.6626 51.6025 70.548 46.2646 71.7772C40.6682 73.0689 35.8683 74.6628 31.9477 76.4649C27.7788 78.3817 24.572 80.5692 22.5341 82.9235C20.341 85.4548 19.4928 88.1945 20.2997 90.9759C21.1686 93.9864 23.9513 97.0491 29.0098 99.9033C34.4304 102.966 41.7958 105.435 50.4749 107.174C59.4851 108.977 69.5607 109.945 79.8536 109.997C90.1465 110.05 100.243 109.206 109.274 107.487C117.973 105.841 125.37 103.456 130.842 100.445C135.942 97.6428 138.776 94.6115 139.676 91.6113C140.514 88.83 139.697 86.0799 137.545 83.5277C135.539 81.1526 132.363 78.9338 128.215 76.9649C124.325 75.1211 119.536 73.4856 113.949 72.1314"/>
			</mask>
			<path d="M97.2325 69.2771L97.0105 71.3341L97.0115 71.3342L97.2325 69.2771ZM80.1225 68.3292L80.1113 70.3981L80.115 70.3981L80.1225 68.3292ZM63.0022 69.1L62.8033 67.0407L62.8001 67.041L63.0022 69.1ZM46.2646 71.7772L45.8004 69.7611L45.7993 69.7613L46.2646 71.7772ZM31.9477 76.4649L31.0836 74.5851L31.0834 74.5852L31.9477 76.4649ZM22.5341 82.9235L24.0978 84.2782L24.0984 84.2776L22.5341 82.9235ZM20.2997 90.9759L22.2874 90.4022L22.2867 90.3995L20.2997 90.9759ZM29.0098 99.9033L30.0276 98.102L30.0265 98.1015L29.0098 99.9033ZM50.4749 107.174L50.0683 109.203L50.0691 109.203L50.4749 107.174ZM109.274 107.487L108.889 105.454L108.887 105.455L109.274 107.487ZM130.842 100.445L129.846 98.6318L129.845 98.6323L130.842 100.445ZM139.676 91.6113L137.695 91.0145L137.695 91.0169L139.676 91.6113ZM137.545 83.5277L139.127 82.1941L139.126 82.1924L137.545 83.5277ZM128.215 76.9649L129.102 75.0958L129.101 75.0954L128.215 76.9649ZM114.427 70.1207C109.001 68.8052 103.252 67.8431 97.4535 67.22L97.0115 71.3342C102.654 71.9404 108.222 72.8742 113.452 74.1421L114.427 70.1207ZM97.4546 67.2202C91.7865 66.6082 85.9219 66.2814 80.1301 66.2603L80.115 70.3981C85.7644 70.4187 91.4857 70.7376 97.0105 71.3341L97.4546 67.2202ZM80.1338 66.2603C74.3339 66.2287 68.4811 66.4922 62.8033 67.0407L63.2012 71.1594C68.7369 70.6245 74.4493 70.3672 80.1113 70.3981L80.1338 66.2603ZM62.8001 67.041C56.9935 67.611 51.236 68.5093 45.8004 69.7611L46.7289 73.7934C51.9689 72.5867 57.5491 71.7142 63.2043 71.1591L62.8001 67.041ZM45.7993 69.7613C40.0981 71.0772 35.1592 72.7117 31.0836 74.5851L32.8118 78.3447C36.5774 76.6139 41.2383 75.0607 46.7299 73.7931L45.7993 69.7613ZM31.0834 74.5852C26.769 76.5688 23.2731 78.9086 20.9698 81.5694L24.0984 84.2776C25.8709 82.2299 28.7886 80.1945 32.812 78.3447L31.0834 74.5852ZM20.9704 81.5688C18.4536 84.4738 17.2588 87.9197 18.3127 91.5523L22.2867 90.3995C21.7267 88.4694 22.2285 86.4359 24.0978 84.2782L20.9704 81.5688ZM18.3119 91.5496C19.4006 95.3214 22.738 98.74 27.9931 101.705L30.0265 98.1015C25.1647 95.3581 22.9367 92.6515 22.2874 90.4022L18.3119 91.5496ZM27.9921 101.705C33.6697 104.912 41.2654 107.439 50.0683 109.203L50.8815 105.146C42.3261 103.431 35.1911 101.019 30.0276 98.102L27.9921 101.705ZM50.0691 109.203C59.2238 111.034 69.4329 112.014 79.8431 112.066L79.8641 107.929C69.6885 107.877 59.7463 106.919 50.8807 105.146L50.0691 109.203ZM79.8431 112.066C90.2497 112.119 100.481 111.267 109.66 109.519L108.887 105.455C100.005 107.145 90.0432 107.98 79.8641 107.929L79.8431 112.066ZM109.658 109.52C118.482 107.851 126.109 105.41 131.839 102.258L129.845 98.6323C124.631 101.501 117.465 103.832 108.889 105.454L109.658 109.52ZM131.838 102.258C137.13 99.3505 140.529 95.9697 141.658 92.2058L137.695 91.0169C137.024 93.2532 134.754 95.9351 129.846 98.6318L131.838 102.258ZM141.657 92.2081C142.75 88.5823 141.598 85.1244 139.127 82.1941L135.964 84.8612C137.797 87.0353 138.279 89.0776 137.695 91.0145L141.657 92.2081ZM139.126 82.1924C136.857 79.5068 133.393 77.1325 129.102 75.0958L127.328 78.834C131.333 80.735 134.221 82.7984 135.965 84.863L139.126 82.1924ZM129.101 75.0954C125.053 73.1766 120.123 71.4992 114.437 70.1207L113.462 74.1421C118.948 75.472 123.597 77.0656 127.328 78.8344L129.101 75.0954Z" fill="url(#paint4_linear_597_2465)" mask="url(#path-10-inside-3_597_2465)"/>
		</g>
		<path d="M44.8828 100.652C40.8898 98.7768 38.3967 96.7143 37.2278 94.6413C36.1209 92.6724 36.2244 90.6828 37.3726 88.8077C38.4691 87.0264 40.507 85.3284 43.3725 83.8179C46.1138 82.3699 49.631 81.0782 53.8516 80.0157C57.9377 78.9844 62.3652 78.2344 66.8961 77.7656C71.365 77.2968 76.0097 77.0781 80.6131 77.0989C85.2164 77.1197 89.8612 77.3906 94.3197 77.9114C98.8506 78.4323 103.268 79.224 107.333 80.2969C111.543 81.4116 115.04 82.7345 117.761 84.2138C120.605 85.7555 122.623 87.4639 123.688 89.2661C124.816 91.1515 124.888 93.1412 123.76 95.0996C122.571 97.1622 120.047 99.1935 116.023 101.037C111.823 102.954 106.464 104.444 100.382 105.454C94.1542 106.485 87.3164 106.996 80.4062 106.954C73.496 106.913 66.6685 106.34 60.4514 105.235C54.3895 104.162 49.0517 102.621 44.8725 100.652M108.326 79.9636C104.095 78.8594 99.5023 78.0364 94.8059 77.4948C90.1818 76.9635 85.3819 76.6926 80.6131 76.6614C75.8442 76.6406 71.034 76.8593 66.4099 77.3489C61.7031 77.8385 57.1101 78.6094 52.8585 79.6719C48.462 80.7761 44.7794 82.1095 41.9036 83.6096C38.8829 85.1721 36.7209 86.9326 35.5313 88.7973C34.2796 90.7557 34.1141 92.8287 35.2209 94.9017C36.3795 97.0893 38.9553 99.256 43.0932 101.235C47.4379 103.308 53.024 104.954 59.3963 106.09C65.9237 107.256 73.1236 107.871 80.4062 107.913C87.6991 107.954 94.8886 107.413 101.437 106.308C107.819 105.235 113.437 103.652 117.812 101.621C121.981 99.6831 124.578 97.5372 125.778 95.3705C126.905 93.3079 126.771 91.2349 125.55 89.2556C124.391 87.3806 122.25 85.5992 119.25 84.0054C116.395 82.4741 112.733 81.1095 108.347 79.9532" fill="url(#paint5_linear_597_2465)"/>
		<path fill-rule="evenodd" clip-rule="evenodd" d="M123.536 77.2872C122.563 79.3706 120.236 81.4436 116.356 83.3395C112.25 85.3396 106.891 86.9021 100.715 87.9647C94.3638 89.0585 87.3398 89.6106 80.2124 89.5689C76.2918 89.5481 72.4022 89.3501 68.6471 88.9751L72.3505 83.2874C74.9366 83.527 77.5848 83.6624 80.2537 83.6728C85.0847 83.6937 89.8639 83.3603 94.2397 82.6728C98.5327 81.9957 102.36 80.9852 105.401 79.6831C108.329 78.4226 110.243 77.0268 111.205 75.5892C112.125 74.2141 112.198 72.8078 111.494 71.464C110.822 70.1827 109.457 68.9431 107.47 67.8181C105.557 66.7451 103.053 65.7659 100.012 64.9429C97.0637 64.1512 93.8259 63.5575 90.4949 63.172C87.2157 62.7866 83.7813 62.5887 80.3779 62.5678C76.9745 62.547 73.5504 62.7137 70.2609 63.0679C66.9299 63.422 63.692 63.9742 60.7231 64.745C57.6715 65.5367 55.1577 66.4847 53.2336 67.5368C51.2268 68.6306 49.8509 69.8598 49.1579 71.1307C48.4441 72.4641 48.4855 73.8704 49.3958 75.2558C49.6544 75.6517 49.9958 76.0371 50.3889 76.4226L37.6753 77.9226C37.4271 77.558 37.2098 77.2038 37.0443 76.8392C36.165 74.8704 36.4857 72.912 37.8202 71.0682C39.0822 69.3389 41.2442 67.7139 44.1718 66.2763C46.9545 64.9117 50.4613 63.6929 54.6095 62.6929C58.5921 61.7345 62.8851 61.047 67.2506 60.6094C71.5332 60.1823 75.9814 59.974 80.3882 59.9948C84.795 60.0157 89.2329 60.2657 93.5155 60.7449C97.881 61.2345 102.153 61.9637 106.136 62.9637C110.274 64.0054 113.76 65.2555 116.522 66.6513C119.439 68.1201 121.58 69.766 122.811 71.5161C124.125 73.3704 124.415 75.3288 123.505 77.2872H123.536Z" fill="url(#paint6_linear_597_2465)"/>
		<path fill-rule="evenodd" clip-rule="evenodd" d="M123.536 77.2872C122.563 79.3707 120.236 81.4437 116.356 83.3396C112.25 85.3396 106.891 86.9022 100.715 87.9647C94.3638 89.0585 87.3398 89.6106 80.2124 89.569C76.2918 89.5481 72.4022 89.3502 68.6471 88.9752L72.3505 83.2875C74.9366 83.5271 77.5848 83.6625 80.2537 83.6729C85.0847 83.6937 89.8639 83.3604 94.2397 82.6729C98.5327 81.9958 102.36 80.9853 105.401 79.6832C108.329 78.4227 110.243 77.0268 111.205 75.5893C112.125 74.2142 112.198 72.8079 111.494 71.4641C110.822 70.1724 109.457 68.9432 107.47 67.8181C105.557 66.7452 103.053 65.766 100.012 64.943C97.0637 64.1513 93.8259 63.5575 90.4949 63.1721C87.2157 62.7867 83.7813 62.5887 80.3779 62.5679C76.9745 62.5471 73.5504 62.7138 70.2609 63.0679C66.9299 63.4221 63.692 63.9742 60.7231 64.7451C57.6715 65.5368 55.1577 66.4847 53.2336 67.5369C51.2268 68.6306 49.8509 69.8599 49.1579 71.1307C48.4441 72.4641 48.4855 73.8704 49.3958 75.2559C49.6544 75.6518 49.9958 76.0372 50.3889 76.4226L37.6753 77.9227C37.4271 77.5581 37.2098 77.2039 37.0443 76.8393C36.165 74.8705 36.4857 72.9121 37.8202 71.0682C39.0822 69.339 41.2442 67.7139 44.1718 66.2764C46.9545 64.9118 50.4613 63.693 54.6095 62.6929C58.5921 61.7345 62.8851 61.047 67.2506 60.6095C71.5539 60.172 76.0021 59.9741 80.4089 59.9949C84.8157 60.0157 89.2536 60.2657 93.5362 60.7449C97.9016 61.2345 102.174 61.9637 106.157 62.9638C110.294 64.0055 113.781 65.2555 116.543 66.6514C119.46 68.1202 121.601 69.7661 122.832 71.5162C124.146 73.3704 124.436 75.3288 123.525 77.2872H123.536Z" fill="url(#paint7_angular_597_2465)"/>
		<mask id="mask1_597_2465" style="mask-type:alpha" maskUnits="userSpaceOnUse" x="36" y="59" width="89" height="31">
			<path fill-rule="evenodd" clip-rule="evenodd" d="M123.536 77.2864C122.563 79.3698 120.236 81.4428 116.356 83.3387C112.25 85.3388 106.891 86.9013 100.715 87.9639C94.3638 89.0577 87.3398 89.6098 80.2124 89.5681C76.2918 89.5473 72.4022 89.3494 68.6471 88.9743L72.3505 83.2866C74.9366 83.5262 77.5848 83.6616 80.2537 83.6721C85.0847 83.6929 89.8639 83.3595 94.2397 82.672C98.5327 81.9949 102.36 80.9844 105.401 79.6823C108.329 78.4218 110.243 77.026 111.205 75.5884C112.125 74.2133 112.198 72.807 111.494 71.4632C110.822 70.1715 109.457 68.9423 107.47 67.8173C105.557 66.7443 103.053 65.7651 100.012 64.9422C97.0637 64.1505 93.8259 63.5567 90.4949 63.1712C87.2157 62.7858 83.7813 62.5879 80.3779 62.5671C76.9745 62.5462 73.5504 62.7129 70.2609 63.0671C66.9299 63.4213 63.692 63.9734 60.7231 64.7442C57.6715 65.5359 55.1577 66.4839 53.2336 67.536C51.2268 68.6298 49.8509 69.859 49.1579 71.1299C48.4441 72.4633 48.4855 73.8696 49.3958 75.2551C49.6544 75.6509 49.9958 76.0363 50.3889 76.4218L37.6753 77.9218C37.4271 77.5572 37.2098 77.203 37.0443 76.8385C36.165 74.8696 36.4857 72.9112 37.8202 71.0674C39.0822 69.3382 41.2442 67.7131 44.1718 66.2755C46.9545 64.9109 50.4613 63.6921 54.6095 62.6921C58.5921 61.7337 62.8851 61.0462 67.2506 60.6086C71.5539 60.1711 76.0021 59.9732 80.4089 59.994C84.8157 60.0149 89.2536 60.2649 93.5362 60.7441C97.9016 61.2337 102.174 61.9629 106.157 62.9629C110.294 64.0046 113.781 65.2547 116.543 66.6506C119.46 68.1194 121.601 69.7653 122.832 71.5153C124.146 73.3696 124.436 75.328 123.525 77.2864H123.536Z" fill="url(#paint8_angular_597_2465)"/>
		</mask>
		<g mask="url(#mask1_597_2465)">
			<g style="mix-blend-mode:overlay">
				<g filter="url(#filter3_f_597_2465)">
					<ellipse cx="46.8958" cy="81.8669" rx="21.7237" ry="21.8759" fill="white"/>
				</g>
				<g filter="url(#filter4_f_597_2465)">
					<ellipse cx="160.687" cy="50.6163" rx="21.7237" ry="21.8759" fill="white"/>
				</g>
			</g>
		</g>
		<g filter="url(#filter5_dd_597_2465)">
			<path d="M37.7197 78.4461L50.4255 76.9413" stroke="#C4D5E3" stroke-opacity="0.878431" stroke-width="1.03446"/>
		</g>
		<ellipse cx="37.5859" cy="72.9185" rx="1.03446" ry="1.04171" fill="#CFD8E8" fill-opacity="0.65098"/>
		<ellipse cx="43.7922" cy="76.0418" rx="1.03446" ry="1.04171" fill="#C5CFE3" fill-opacity="0.407843"/>
		<ellipse cx="71.7234" cy="78.1267" rx="1.03446" ry="1.04171" fill="#BECAE0" fill-opacity="0.396078"/>
		<ellipse cx="72.758" cy="73.9589" rx="1.03446" ry="1.04171" fill="#B1C1DA" fill-opacity="0.113725"/>
		<ellipse cx="69.1373" cy="71.3552" rx="0.51723" ry="0.520854" fill="#B1C1DA" fill-opacity="0.113725"/>
		<ellipse cx="91.8951" cy="69.2724" rx="0.51723" ry="0.520854" fill="#B5C2DB" fill-opacity="0.254902"/>
		<ellipse cx="73.7922" cy="57.2922" rx="1.03446" ry="1.04171" fill="#A9BAD5" fill-opacity="0.219608"/>
		<ellipse cx="81.0334" cy="51.0417" rx="1.03446" ry="1.04171" fill="#E3E8F2" fill-opacity="0.843137"/>
		<g clip-path="url(#clip0_597_2465)">
			<rect x="71" y="49" width="20" height="19" fill="white"/>
			<path d="M94.6465 44.1664H91.4137V36.6166C91.4137 30.2939 86.2969 25.1523 80.0015 25.1523C73.7057 25.1523 68.583 30.2939 68.583 36.617V44.1663H65.3537C63.7964 44.1663 62.5337 45.4334 62.5337 46.9974V67.6678C62.5337 69.2343 63.7964 70.5024 65.3537 70.5024H94.6494C96.2067 70.5024 97.466 69.2344 97.466 67.6678V46.9974C97.466 45.4333 96.2043 44.1664 94.6465 44.1664ZM81.5846 57.8714V62.3848C81.5842 62.483 81.5452 62.5771 81.476 62.6467C81.4068 62.7163 81.313 62.7559 81.2148 62.7568H78.7909C78.6924 62.7563 78.5981 62.717 78.5283 62.6474C78.4586 62.5778 78.4192 62.4835 78.4185 62.385V57.8715C77.2798 57.2866 76.4912 56.1143 76.4912 54.7403C76.4912 52.796 78.0626 51.2149 79.9986 51.2149C81.9376 51.2149 83.5095 52.796 83.5095 54.7398C83.5124 56.1143 82.7238 57.2871 81.5846 57.8714ZM87.034 44.1664H72.9682V36.8038C72.9682 32.9093 76.1266 29.7378 80.004 29.7378C83.882 29.7378 87.0345 32.9093 87.0345 36.8038L87.034 44.1664Z" fill="#75A4CF"/>
		</g>
	</g>
	<defs>
		<filter id="filter0_f_597_2465" x="1.37956" y="55.9873" width="156.204" height="85.1011" filterUnits="userSpaceOnUse" color-interpolation-filters="sRGB">
			<feFlood flood-opacity="0" result="BackgroundImageFix"/>
			<feBlend mode="normal" in="SourceGraphic" in2="BackgroundImageFix" result="shape"/>
			<feGaussianBlur stdDeviation="11.3791" result="effect1_foregroundBlur_597_2465"/>
		</filter>
		<filter id="filter1_f_597_2465" x="26.2067" y="72.6541" width="106.549" height="73.6424" filterUnits="userSpaceOnUse" color-interpolation-filters="sRGB">
			<feFlood flood-opacity="0" result="BackgroundImageFix"/>
			<feBlend mode="normal" in="SourceGraphic" in2="BackgroundImageFix" result="shape"/>
			<feGaussianBlur stdDeviation="11.3791" result="effect1_foregroundBlur_597_2465"/>
		</filter>
		<filter id="filter2_dd_597_2465" x="15.8622" y="64.1888" width="128.276" height="49.9488" filterUnits="userSpaceOnUse" color-interpolation-filters="sRGB">
			<feFlood flood-opacity="0" result="BackgroundImageFix"/>
			<feColorMatrix in="SourceAlpha" type="matrix" values="0 0 0 0 0 0 0 0 0 0 0 0 0 0 0 0 0 0 127 0" result="hardAlpha"/>
			<feOffset/>
			<feGaussianBlur stdDeviation="2.06892"/>
			<feColorMatrix type="matrix" values="0 0 0 0 0.385882 0 0 0 0 0.524052 0 0 0 0 0.704314 0 0 0 1 0"/>
			<feBlend mode="normal" in2="BackgroundImageFix" result="effect1_dropShadow_597_2465"/>
			<feColorMatrix in="SourceAlpha" type="matrix" values="0 0 0 0 0 0 0 0 0 0 0 0 0 0 0 0 0 0 127 0" result="hardAlpha"/>
			<feOffset/>
			<feGaussianBlur stdDeviation="2.06892"/>
			<feColorMatrix type="matrix" values="0 0 0 0 0.385882 0 0 0 0 0.524052 0 0 0 0 0.704314 0 0 0 0.11 0"/>
			<feBlend mode="normal" in2="effect1_dropShadow_597_2465" result="effect2_dropShadow_597_2465"/>
			<feBlend mode="normal" in="SourceGraphic" in2="effect2_dropShadow_597_2465" result="shape"/>
		</filter>
		<filter id="filter3_f_597_2465" x="-12.0685" y="22.7505" width="117.929" height="118.233" filterUnits="userSpaceOnUse" color-interpolation-filters="sRGB">
			<feFlood flood-opacity="0" result="BackgroundImageFix"/>
			<feBlend mode="normal" in="SourceGraphic" in2="BackgroundImageFix" result="shape"/>
			<feGaussianBlur stdDeviation="18.6203" result="effect1_foregroundBlur_597_2465"/>
		</filter>
		<filter id="filter4_f_597_2465" x="101.722" y="-8.50012" width="117.929" height="118.233" filterUnits="userSpaceOnUse" color-interpolation-filters="sRGB">
			<feFlood flood-opacity="0" result="BackgroundImageFix"/>
			<feBlend mode="normal" in="SourceGraphic" in2="BackgroundImageFix" result="shape"/>
			<feGaussianBlur stdDeviation="18.6203" result="effect1_foregroundBlur_597_2465"/>
		</filter>
		<filter id="filter5_dd_597_2465" x="33.521" y="72.2898" width="21.1031" height="10.8078" filterUnits="userSpaceOnUse" color-interpolation-filters="sRGB">
			<feFlood flood-opacity="0" result="BackgroundImageFix"/>
			<feColorMatrix in="SourceAlpha" type="matrix" values="0 0 0 0 0 0 0 0 0 0 0 0 0 0 0 0 0 0 127 0" result="hardAlpha"/>
			<feOffset/>
			<feGaussianBlur stdDeviation="2.06892"/>
			<feColorMatrix type="matrix" values="0 0 0 0 0.769706 0 0 0 0 0.835245 0 0 0 0 0.889118 0 0 0 1 0"/>
			<feBlend mode="normal" in2="BackgroundImageFix" result="effect1_dropShadow_597_2465"/>
			<feColorMatrix in="SourceAlpha" type="matrix" values="0 0 0 0 0 0 0 0 0 0 0 0 0 0 0 0 0 0 127 0" result="hardAlpha"/>
			<feOffset/>
			<feGaussianBlur stdDeviation="2.06892"/>
			<feColorMatrix type="matrix" values="0 0 0 0 0.769706 0 0 0 0 0.835245 0 0 0 0 0.889118 0 0 0 1 0"/>
			<feBlend mode="normal" in2="effect1_dropShadow_597_2465" result="effect2_dropShadow_597_2465"/>
			<feBlend mode="normal" in="SourceGraphic" in2="effect2_dropShadow_597_2465" result="shape"/>
		</filter>
		<linearGradient id="paint0_linear_597_2465" x1="80" y1="68.3267" x2="80" y2="110" gradientUnits="userSpaceOnUse">
			<stop stop-color="#3E4D82" stop-opacity="0"/>
			<stop offset="0.82556" stop-color="#3E4D82" stop-opacity="0.45098"/>
		</linearGradient>
		<linearGradient id="paint1_linear_597_2465" x1="79.8369" y1="61.0338" x2="79.8369" y2="87.1421" gradientUnits="userSpaceOnUse">
			<stop stop-color="#25324C" stop-opacity="0.45098"/>
			<stop offset="1" stop-color="#25324C" stop-opacity="0"/>
		</linearGradient>
		<linearGradient id="paint2_linear_597_2465" x1="80" y1="68.3267" x2="80" y2="110" gradientUnits="userSpaceOnUse">
			<stop offset="0.277946" stop-color="#7399BB" stop-opacity="0"/>
			<stop offset="0.689753" stop-color="#7399BB" stop-opacity="0.162517"/>
			<stop offset="1" stop-color="#7399BB" stop-opacity="0.588235"/>
		</linearGradient>
		<linearGradient id="paint3_linear_597_2465" x1="81.5503" y1="92.2864" x2="81.5503" y2="106.871" gradientUnits="userSpaceOnUse">
			<stop stop-color="#7399BC" stop-opacity="0.411765"/>
			<stop offset="0.699965" stop-color="#7399BC" stop-opacity="0"/>
		</linearGradient>
		<linearGradient id="paint4_linear_597_2465" x1="80" y1="68.3267" x2="80" y2="110" gradientUnits="userSpaceOnUse">
			<stop offset="0.882467" stop-color="#D9E2ED" stop-opacity="0"/>
			<stop offset="0.965254" stop-color="#D9E2ED"/>
		</linearGradient>
		<linearGradient id="paint5_linear_597_2465" x1="66.0337" y1="78.2226" x2="70.7526" y2="107.901" gradientUnits="userSpaceOnUse">
			<stop offset="0.0604174" stop-color="#6789B6" stop-opacity="0.584314"/>
			<stop offset="0.242692" stop-color="#688AB6" stop-opacity="0.200742"/>
			<stop offset="0.442701" stop-color="#688AB6" stop-opacity="0.0934715"/>
			<stop offset="0.722347" stop-color="#688AB6" stop-opacity="0"/>
		</linearGradient>
		<linearGradient id="paint6_linear_597_2465" x1="49.9995" y1="74.5773" x2="58.3691" y2="91.7196" gradientUnits="userSpaceOnUse">
			<stop stop-color="#859BC4"/>
			<stop offset="1" stop-color="#859BC4" stop-opacity="0"/>
		</linearGradient>
		<radialGradient id="paint7_angular_597_2465" cx="0" cy="0" r="1" gradientUnits="userSpaceOnUse" gradientTransform="translate(80.3024 74.7823) rotate(90) scale(14.7889 43.7508)">
			<stop offset="0.0127081" stop-color="#5174A7" stop-opacity="0"/>
			<stop offset="0.0447132" stop-color="#5174A7" stop-opacity="0"/>
			<stop offset="0.199558" stop-color="#5175A8"/>
			<stop offset="0.535053" stop-color="#5074A7" stop-opacity="0.94902"/>
			<stop offset="0.66366" stop-color="#5175A8" stop-opacity="0.721569"/>
			<stop offset="0.814629" stop-color="#5174A7" stop-opacity="0.705882"/>
			<stop offset="0.93259" stop-color="#5174A7" stop-opacity="0.498039"/>
		</radialGradient>
		<radialGradient id="paint8_angular_597_2465" cx="0" cy="0" r="1" gradientUnits="userSpaceOnUse" gradientTransform="translate(80.3024 74.7814) rotate(90) scale(14.7889 43.7508)">
			<stop offset="0.0127081" stop-color="#5174A7" stop-opacity="0"/>
			<stop offset="0.0447132" stop-color="#5174A7" stop-opacity="0"/>
			<stop offset="0.199558" stop-color="#5175A8"/>
			<stop offset="0.535053" stop-color="#5074A7" stop-opacity="0.94902"/>
			<stop offset="0.66366" stop-color="#5175A8" stop-opacity="0.721569"/>
			<stop offset="0.814629" stop-color="#5174A7" stop-opacity="0.705882"/>
			<stop offset="0.93259" stop-color="#5174A7" stop-opacity="0.498039"/>
		</radialGradient>
		<clipPath id="clip0_597_2465">
			<rect width="52" height="52" fill="white" transform="translate(54 22)"/>
		</clipPath>
	</defs>
</svg>
