<svg xmlns="http://www.w3.org/2000/svg" width="118" height="106" viewBox="0 0 118 106" fill="none">
  <path d="M44.2816 5.40309C50.3249 2.04321 57.675 2.04321 63.7184 5.40308L90.4837 20.2837C96.8299 23.812 100.765 30.5027 100.765 37.7638V66.2362C100.765 73.4973 96.83 80.188 90.4837 83.7163L63.7184 98.5969C57.6751 101.957 50.325 101.957 44.2816 98.5969L17.5163 83.7163C11.1701 80.188 7.23463 73.4973 7.23463 66.2362V37.7638C7.23463 30.5027 11.17 23.812 17.5163 20.2837L44.2816 5.40309Z" fill="url(#paint0_linear_249_259)"/>
  <path d="M90.0914 59.6121C91.9008 58.6092 94.0992 58.6092 95.9086 59.6121L111.559 68.2866C113.467 69.344 114.651 71.3533 114.651 73.5344V90.4656C114.651 92.6467 113.467 94.656 111.559 95.7134L95.9086 104.388C94.0992 105.391 91.9008 105.391 90.0914 104.388L74.4407 95.7134C72.533 94.656 71.3494 92.6467 71.3494 90.4656V73.5344C71.3494 71.3533 72.533 69.344 74.4407 68.2866L90.0914 59.6121Z" fill="url(#paint1_linear_249_259)" fill-opacity="0.5"/>
  <rect x="33" y="43" width="42" height="16" fill="white"/>
  <rect x="46" y="72" width="42" height="16" transform="rotate(-90 46 72)" fill="white"/>
  <defs>
    <linearGradient id="paint0_linear_249_259" x1="54" y1="0" x2="54" y2="104" gradientUnits="userSpaceOnUse">
      <stop stop-color="#8DB6FF"/>
      <stop offset="1" stop-color="#417CFC"/>
    </linearGradient>
    <linearGradient id="paint1_linear_249_259" x1="93" y1="58" x2="93" y2="106" gradientUnits="userSpaceOnUse">
      <stop stop-color="#8DB6FF"/>
      <stop offset="1" stop-color="#417CFC"/>
    </linearGradient>
  </defs>
</svg>