<svg xmlns="http://www.w3.org/2000/svg" width="57" height="45" viewBox="0 0 57 45" fill="none">
  <rect y="0.181641" width="50.6263" height="39.7778" rx="10" fill="url(#paint0_linear_124_1072)"/>
  <rect opacity="0.82" x="12.0547" y="8.61914" width="6.02694" height="6.02694" rx="2" fill="white"/>
  <rect opacity="0.82" x="12.0547" y="17.0566" width="6.02694" height="6.02694" rx="2" fill="white"/>
  <rect opacity="0.82" x="12.0547" y="25.4941" width="24.1078" height="6.02694" rx="2" fill="white"/>
  <g opacity="0.82" filter="url(#filter0_f_124_1072)">
    <rect x="25.3125" y="24.2891" width="12.0539" height="8.43772" rx="2" fill="white"/>
  </g>
  <rect opacity="0.82" x="21.6973" y="8.61914" width="6.02694" height="6.02694" rx="2" fill="white"/>
  <rect opacity="0.82" x="21.6973" y="17.0566" width="6.02694" height="6.02694" rx="2" fill="white"/>
  <rect opacity="0.82" x="30.1348" y="8.61914" width="6.02694" height="6.02694" rx="2" fill="white"/>
  <g filter="url(#filter1_f_124_1072)">
    <rect x="30.1348" y="17.0566" width="6.02694" height="6.02694" rx="2" fill="white"/>
  </g>
  <rect x="47.416" y="30.3164" width="13.4015" height="7.23233" rx="3" transform="rotate(46.2731 47.416 30.3164)" fill="url(#paint1_linear_124_1072)"/>
  <g filter="url(#filter2_f_124_1072)">
    <circle cx="37.9688" cy="27.3028" r="11.4512" fill="url(#paint2_linear_124_1072)" fill-opacity="0.77"/>
  </g>
  <circle cx="37.9691" cy="27.3031" r="12.4066" fill="url(#paint3_linear_124_1072)" fill-opacity="0.49" stroke="#ADC5F4" stroke-width="0.5"/>
  <path d="M37.1725 17.2978C37.3329 17.0387 37.6162 16.8796 37.9209 16.8865C42.6799 16.995 45.264 18.7098 46.5371 22.2506C46.6146 22.4659 46.5846 22.7043 46.4641 22.8989C46.0876 23.5071 45.0832 23.3365 44.7739 22.6915C43.5445 20.1288 40.9344 18.8628 38.0751 18.7989C37.3222 18.7821 36.776 17.9381 37.1725 17.2978Z" fill="white" fill-opacity="0.85"/>
  <defs>
    <filter id="filter0_f_124_1072" x="24.3125" y="23.2891" width="14.0547" height="10.4375" filterUnits="userSpaceOnUse" color-interpolation-filters="sRGB">
      <feFlood flood-opacity="0" result="BackgroundImageFix"/>
      <feBlend mode="normal" in="SourceGraphic" in2="BackgroundImageFix" result="shape"/>
      <feGaussianBlur stdDeviation="0.5" result="effect1_foregroundBlur_124_1072"/>
    </filter>
    <filter id="filter1_f_124_1072" x="29.1348" y="16.0566" width="8.02734" height="8.02734" filterUnits="userSpaceOnUse" color-interpolation-filters="sRGB">
      <feFlood flood-opacity="0" result="BackgroundImageFix"/>
      <feBlend mode="normal" in="SourceGraphic" in2="BackgroundImageFix" result="shape"/>
      <feGaussianBlur stdDeviation="0.5" result="effect1_foregroundBlur_124_1072"/>
    </filter>
    <filter id="filter2_f_124_1072" x="26.0176" y="15.3516" width="23.9023" height="23.9023" filterUnits="userSpaceOnUse" color-interpolation-filters="sRGB">
      <feFlood flood-opacity="0" result="BackgroundImageFix"/>
      <feBlend mode="normal" in="SourceGraphic" in2="BackgroundImageFix" result="shape"/>
      <feGaussianBlur stdDeviation="0.25" result="effect1_foregroundBlur_124_1072"/>
    </filter>
    <linearGradient id="paint0_linear_124_1072" x1="25.3132" y1="0.181641" x2="25.3132" y2="39.9595" gradientUnits="userSpaceOnUse">
      <stop stop-color="#3FBFFF"/>
      <stop offset="1" stop-color="#2A8BFB"/>
    </linearGradient>
    <linearGradient id="paint1_linear_124_1072" x1="45.8097" y1="35.0061" x2="59.1165" y2="34.8568" gradientUnits="userSpaceOnUse">
      <stop stop-color="#3EBDFF"/>
      <stop offset="1" stop-color="#2B8DFB"/>
    </linearGradient>
    <linearGradient id="paint2_linear_124_1072" x1="37.9688" y1="15.8516" x2="37.9688" y2="38.7539" gradientUnits="userSpaceOnUse">
      <stop stop-color="white"/>
      <stop offset="1" stop-color="#2B8DFB"/>
    </linearGradient>
    <linearGradient id="paint3_linear_124_1072" x1="37.9691" y1="14.6465" x2="37.9691" y2="39.9596" gradientUnits="userSpaceOnUse">
      <stop stop-color="white" stop-opacity="0.99"/>
      <stop offset="1" stop-color="#DAEBFF" stop-opacity="0.82"/>
    </linearGradient>
  </defs>
</svg>