<svg xmlns="http://www.w3.org/2000/svg" width="54" height="48" viewBox="0 0 54 48" fill="none">
  <rect x="22.3867" width="32" height="38" rx="10" transform="rotate(14.3009 22.3867 0)" fill="url(#paint0_linear_192_256)"/>
  <g filter="url(#filter0_f_192_256)">
    <rect x="16.8555" y="14.8496" width="27.9359" height="23.9933" rx="5" transform="rotate(14.3009 16.8555 14.8496)" fill="url(#paint1_linear_192_256)"/>
  </g>
  <g filter="url(#filter1_i_192_256)">
    <path d="M0 11.6442C0 7.97472 2.97472 5 6.64421 5H8.48444C9.73081 5 10.8816 5.66784 11.5 6.75C12.1184 7.83216 13.2692 8.5 14.5156 8.5H15.5H19C20.6228 8.5 22.2018 9.02633 23.5 10C24.7982 10.9737 26.3772 11.5 28 11.5H31H32C37.5228 11.5 42 15.9772 42 21.5V37C42 42.5228 37.5228 47 32 47H10C4.47715 47 0 42.5228 0 37V11.6442Z" fill="url(#paint2_linear_192_256)"/>
  </g>
  <rect x="7" y="36" width="24" height="4" rx="2" fill="white"/>
  <defs>
    <filter id="filter0_f_192_256" x="8.00781" y="11.9277" width="38.8398" height="35.9941" filterUnits="userSpaceOnUse" color-interpolation-filters="sRGB">
      <feFlood flood-opacity="0" result="BackgroundImageFix"/>
      <feBlend mode="normal" in="SourceGraphic" in2="BackgroundImageFix" result="shape"/>
      <feGaussianBlur stdDeviation="2" result="effect1_foregroundBlur_192_256"/>
    </filter>
    <filter id="filter1_i_192_256" x="0" y="5" width="42" height="42" filterUnits="userSpaceOnUse" color-interpolation-filters="sRGB">
      <feFlood flood-opacity="0" result="BackgroundImageFix"/>
      <feBlend mode="normal" in="SourceGraphic" in2="BackgroundImageFix" result="shape"/>
      <feColorMatrix in="SourceAlpha" type="matrix" values="0 0 0 0 0 0 0 0 0 0 0 0 0 0 0 0 0 0 127 0" result="hardAlpha"/>
      <feOffset/>
      <feGaussianBlur stdDeviation="2"/>
      <feComposite in2="hardAlpha" operator="arithmetic" k2="-1" k3="1"/>
      <feColorMatrix type="matrix" values="0 0 0 0 0.941176 0 0 0 0 0.54902 0 0 0 0 0.466667 0 0 0 0.6 0"/>
      <feBlend mode="normal" in2="shape" result="effect1_innerShadow_192_256"/>
    </filter>
    <linearGradient id="paint0_linear_192_256" x1="38.3867" y1="0" x2="38.3867" y2="38" gradientUnits="userSpaceOnUse">
      <stop stop-color="#FFBEA9"/>
      <stop offset="1" stop-color="#FF8E7E"/>
    </linearGradient>
    <linearGradient id="paint1_linear_192_256" x1="30.8234" y1="14.8496" x2="30.8234" y2="38.843" gradientUnits="userSpaceOnUse">
      <stop stop-color="#F0A58D"/>
      <stop offset="1" stop-color="#F06652"/>
    </linearGradient>
    <linearGradient id="paint2_linear_192_256" x1="21" y1="5" x2="21" y2="47" gradientUnits="userSpaceOnUse">
      <stop stop-color="#FFF7F4" stop-opacity="0.79"/>
      <stop offset="1" stop-color="#FCEBE3" stop-opacity="0.83"/>
    </linearGradient>
  </defs>
</svg>