<svg width="64" height="64" viewBox="0 0 64 64" fill="none" xmlns="http://www.w3.org/2000/svg">
<path d="M31.4294 18.3716C32.1202 16.4737 34.2188 15.4951 36.1168 16.1859L53.2997 22.44C55.1977 23.1308 56.1763 25.2294 55.4855 27.1274L47.3442 49.4954C47.0496 50.3048 46.0314 50.5617 45.3881 49.989L37.5278 42.991C36.8305 42.3702 35.9221 42.0395 34.9888 42.0669L24.4693 42.3752C23.6084 42.4004 22.9935 41.5491 23.2881 40.7397L31.4294 18.3716Z" fill="url(#paint0_linear_663_293)"/>
<g filter="url(#filter0_bi_663_293)">
<path d="M11.2764 14.9333C11.2764 12.9135 12.9137 11.2761 14.9335 11.2761H41.7526C43.7723 11.2761 45.4097 12.9135 45.4097 14.9333V48.3321C45.4097 50.9743 42.6938 52.7446 40.2764 51.6781L29.8192 47.0646C28.8788 46.6497 27.8073 46.6497 26.8669 47.0646L16.4097 51.6781C13.9923 52.7446 11.2764 50.9743 11.2764 48.3321V14.9333Z" fill="#8D33FF" fill-opacity="0.1"/>
<path d="M11.2764 14.9333C11.2764 12.9135 12.9137 11.2761 14.9335 11.2761H41.7526C43.7723 11.2761 45.4097 12.9135 45.4097 14.9333V48.3321C45.4097 50.9743 42.6938 52.7446 40.2764 51.6781L29.8192 47.0646C28.8788 46.6497 27.8073 46.6497 26.8669 47.0646L16.4097 51.6781C13.9923 52.7446 11.2764 50.9743 11.2764 48.3321V14.9333Z" fill="white" fill-opacity="0.3"/>
</g>
<g filter="url(#filter1_d_663_293)">
<path d="M20.4189 24.0762H36.2666" stroke="white" stroke-width="3.65714" stroke-linecap="round" stroke-linejoin="round"/>
</g>
<g filter="url(#filter2_d_663_293)">
<path d="M20.4189 33.8286H26.5142" stroke="white" stroke-width="3.65714" stroke-linecap="round" stroke-linejoin="round"/>
</g>
<defs>
<filter id="filter0_bi_663_293" x="3.96208" y="3.96184" width="48.7619" height="55.3459" filterUnits="userSpaceOnUse" color-interpolation-filters="sRGB">
<feFlood flood-opacity="0" result="BackgroundImageFix"/>
<feGaussianBlur in="BackgroundImageFix" stdDeviation="3.65714"/>
<feComposite in2="SourceAlpha" operator="in" result="effect1_backgroundBlur_663_293"/>
<feBlend mode="normal" in="SourceGraphic" in2="effect1_backgroundBlur_663_293" result="shape"/>
<feColorMatrix in="SourceAlpha" type="matrix" values="0 0 0 0 0 0 0 0 0 0 0 0 0 0 0 0 0 0 127 0" result="hardAlpha"/>
<feOffset dy="1"/>
<feGaussianBlur stdDeviation="1"/>
<feComposite in2="hardAlpha" operator="arithmetic" k2="-1" k3="1"/>
<feColorMatrix type="matrix" values="0 0 0 0 0.56 0 0 0 0 0 0 0 0 0 1 0 0 0 0.4 0"/>
<feBlend mode="normal" in2="shape" result="effect2_innerShadow_663_293"/>
</filter>
<filter id="filter1_d_663_293" x="17.7776" y="21.4349" width="22.7557" height="6.90802" filterUnits="userSpaceOnUse" color-interpolation-filters="sRGB">
<feFlood flood-opacity="0" result="BackgroundImageFix"/>
<feColorMatrix in="SourceAlpha" type="matrix" values="0 0 0 0 0 0 0 0 0 0 0 0 0 0 0 0 0 0 127 0" result="hardAlpha"/>
<feOffset dx="0.812698" dy="0.812698"/>
<feGaussianBlur stdDeviation="0.812698"/>
<feComposite in2="hardAlpha" operator="out"/>
<feColorMatrix type="matrix" values="0 0 0 0 0.524417 0 0 0 0 0 0 0 0 0 0.845833 0 0 0 0.25 0"/>
<feBlend mode="normal" in2="BackgroundImageFix" result="effect1_dropShadow_663_293"/>
<feBlend mode="normal" in="SourceGraphic" in2="effect1_dropShadow_663_293" result="shape"/>
</filter>
<filter id="filter2_d_663_293" x="17.7776" y="31.1873" width="13.0032" height="6.90802" filterUnits="userSpaceOnUse" color-interpolation-filters="sRGB">
<feFlood flood-opacity="0" result="BackgroundImageFix"/>
<feColorMatrix in="SourceAlpha" type="matrix" values="0 0 0 0 0 0 0 0 0 0 0 0 0 0 0 0 0 0 127 0" result="hardAlpha"/>
<feOffset dx="0.812698" dy="0.812698"/>
<feGaussianBlur stdDeviation="0.812698"/>
<feComposite in2="hardAlpha" operator="out"/>
<feColorMatrix type="matrix" values="0 0 0 0 0.524417 0 0 0 0 0 0 0 0 0 0.845833 0 0 0 0.25 0"/>
<feBlend mode="normal" in2="BackgroundImageFix" result="effect1_dropShadow_663_293"/>
<feBlend mode="normal" in="SourceGraphic" in2="effect1_dropShadow_663_293" result="shape"/>
</filter>
<linearGradient id="paint0_linear_663_293" x1="44.9941" y1="18.5274" x2="34.7017" y2="46.8056" gradientUnits="userSpaceOnUse">
<stop stop-color="#D186FF"/>
<stop offset="1" stop-color="#8357FF"/>
</linearGradient>
</defs>
</svg>
