<svg width="14" height="14" viewBox="0 0 14 14" fill="none" xmlns="http://www.w3.org/2000/svg">
<rect width="14" height="14" rx="7" fill="#474C59"/>
<path fill-rule="evenodd" clip-rule="evenodd" d="M9.81187 5.07114C10.0462 4.83682 10.0462 4.45693 9.81187 4.22261C9.57755 3.9883 9.19765 3.9883 8.96334 4.22261L6.98272 6.20323L5.09067 4.31119C4.85636 4.07687 4.47646 4.07687 4.24214 4.31119C4.00783 4.5455 4.00783 4.9254 4.24214 5.15972L6.13419 7.05176L4.22261 8.96334C3.9883 9.19765 3.9883 9.57755 4.22261 9.81187C4.45693 10.0462 4.83682 10.0462 5.07114 9.81187L6.98272 7.90029L8.98287 9.90044C9.21719 10.1348 9.59708 10.1348 9.8314 9.90044C10.0657 9.66613 10.0657 9.28623 9.8314 9.05192L7.83124 7.05176L9.81187 5.07114Z" fill="white"/>
</svg>
