<svg xmlns="http://www.w3.org/2000/svg" width="24" height="24" viewBox="0 0 24 24" fill="none">
  <path d="M0.5 4C0.5 2.067 2.067 0.5 4 0.5H20C21.933 0.5 23.5 2.067 23.5 4V20C23.5 21.933 21.933 23.5 20 23.5H4C2.067 23.5 0.5 21.933 0.5 20V4Z" fill="white" stroke="#3A8BFF"/>
  <path d="M17.2865 15.7797L13.8075 12.3L17.2865 8.82033C17.7019 8.40485 17.7019 7.72969 17.2865 7.31161C16.8711 6.89613 16.1961 6.89613 15.7781 7.31161L12.299 10.7913L8.82 7.31161C8.40459 6.89613 7.72956 6.89613 7.31155 7.31161C6.89615 7.72709 6.89615 8.40225 7.31155 8.82033L10.7906 12.3L7.31155 15.7797C6.89615 16.1951 6.89615 16.8703 7.31155 17.2884C7.72696 17.7039 8.402 17.7039 8.82 17.2884L12.299 13.8087L15.7781 17.2884C16.1935 17.7039 16.8685 17.7039 17.2865 17.2884C17.7045 16.8729 17.7045 16.1977 17.2865 15.7797Z" fill="#3A8BFF" stroke="#3A8BFF" stroke-width="0.5"/>
</svg>