<svg xmlns="http://www.w3.org/2000/svg" width="24" height="24" viewBox="0 0 24 24" fill="none">
  <path d="M0.5 4C0.5 2.067 2.067 0.5 4 0.5H20C21.933 0.5 23.5 2.067 23.5 4V20C23.5 21.933 21.933 23.5 20 23.5H4C2.067 23.5 0.5 21.933 0.5 20V4Z" fill="white" stroke="#3A8BFF"/>
  <path d="M10.623 17.1818C10.4351 17.1818 10.2539 17.1113 10.1174 16.9835L6.22542 13.3406C5.93386 13.0677 5.92382 12.6155 6.20294 12.3306C6.48205 12.0456 6.9447 12.036 7.23627 12.3088L10.5592 15.419L16.5869 8.26038C16.8435 7.9557 17.3041 7.91216 17.6158 8.16284C17.9274 8.41353 17.9724 8.86371 17.7158 9.1684L11.1877 16.9215C11.0584 17.075 10.8696 17.1689 10.6664 17.1806C10.6519 17.1814 10.6375 17.1818 10.623 17.1818Z" fill="#3A8BFF" stroke="#3A8BFF" stroke-width="1.5"/>
</svg>