<svg xmlns="http://www.w3.org/2000/svg" width="18" height="18" viewBox="0 0 18 18" fill="none">
  <path fill-rule="evenodd" clip-rule="evenodd" d="M2.875 8.16602C2.875 5.19749 5.28147 2.79102 8.25 2.79102C11.2185 2.79102 13.625 5.19749 13.625 8.16602C13.625 11.1345 11.2185 13.541 8.25 13.541C5.28147 13.541 2.875 11.1345 2.875 8.16602ZM8.25 0.791016C4.1769 0.791016 0.875 4.09292 0.875 8.16602C0.875 12.2391 4.1769 15.541 8.25 15.541C10.0003 15.541 11.6081 14.9313 12.8728 13.9127L15.7097 16.7497C16.1002 17.1402 16.7334 17.1402 17.1239 16.7497C17.5145 16.3591 17.5145 15.726 17.1239 15.3355L14.2475 12.459C15.1145 11.2498 15.625 9.7675 15.625 8.16602C15.625 4.09292 12.3231 0.791016 8.25 0.791016Z" fill="#ACB4BF"/>
</svg>